M48
; DRILL file {KiCad 8.0.1-8.0.1-0~ubuntu23.10.1} date 2024-04-27T14:30:10-0400
; FORMAT={-:-/ absolute / inch / decimal}
; #@! TF.CreationDate,2024-04-27T14:30:10-04:00
; #@! TF.GenerationSoftware,Kicad,Pcbnew,8.0.1-8.0.1-0~ubuntu23.10.1
; #@! TF.FileFunction,Plated,1,2,PTH
FMAT,2
INCH
; #@! TA.AperFunction,Plated,PTH,ViaDrill
T1C0.0157
; #@! TA.AperFunction,Plated,PTH,ComponentDrill
T2C0.0394
%
G90
G05
T1
X1.3425Y1.4252
X1.3425Y0.6811
X1.7165Y1.0433
X1.7205Y1.9055
X1.8504Y1.9055
X1.9528Y1.9055
X2.0512Y1.9055
T2
X0.74Y2.0
X0.84Y2.0
X0.94Y2.0
X1.0346Y1.1134
X1.0346Y0.9953
X1.04Y2.0
X1.1Y0.1
X1.1142Y1.015
X1.14Y2.0
X1.2Y0.1
X1.24Y2.0
X1.2827Y1.3614
X1.2827Y0.7472
X1.3Y0.1
X1.34Y2.0
X1.4Y0.1
X1.4008Y1.3614
X1.4008Y0.7472
X1.44Y2.0
X1.4894Y1.3244
X1.5Y0.1
X1.54Y2.0
X1.6Y0.1
X1.6165Y1.0937
X1.64Y2.0
X1.6488Y0.9953
X1.7Y0.1
X1.8Y2.0
X1.8Y0.1
X1.9Y2.0
X2.0Y2.0
X2.0Y0.1
X2.1Y2.0
X2.1Y0.1
X2.2Y2.0
X2.2Y0.1
X2.3Y2.0
X2.3Y0.1
X2.4Y2.0
X2.4Y0.1
X2.5Y2.0
X2.5Y0.1
M30
