%TF.GenerationSoftware,KiCad,Pcbnew,8.0.1-8.0.1-0~ubuntu23.10.1*%
%TF.CreationDate,2024-04-27T14:30:10-04:00*%
%TF.ProjectId,NavShield,4e617653-6869-4656-9c64-2e6b69636164,rev?*%
%TF.SameCoordinates,Original*%
%TF.FileFunction,Legend,Top*%
%TF.FilePolarity,Positive*%
%FSLAX46Y46*%
G04 Gerber Fmt 4.6, Leading zero omitted, Abs format (unit mm)*
G04 Created by KiCad (PCBNEW 8.0.1-8.0.1-0~ubuntu23.10.1) date 2024-04-27 14:30:10*
%MOMM*%
%LPD*%
G01*
G04 APERTURE LIST*
G04 Aperture macros list*
%AMRoundRect*
0 Rectangle with rounded corners*
0 $1 Rounding radius*
0 $2 $3 $4 $5 $6 $7 $8 $9 X,Y pos of 4 corners*
0 Add a 4 corners polygon primitive as box body*
4,1,4,$2,$3,$4,$5,$6,$7,$8,$9,$2,$3,0*
0 Add four circle primitives for the rounded corners*
1,1,$1+$1,$2,$3*
1,1,$1+$1,$4,$5*
1,1,$1+$1,$6,$7*
1,1,$1+$1,$8,$9*
0 Add four rect primitives between the rounded corners*
20,1,$1+$1,$2,$3,$4,$5,0*
20,1,$1+$1,$4,$5,$6,$7,0*
20,1,$1+$1,$6,$7,$8,$9,0*
20,1,$1+$1,$8,$9,$2,$3,0*%
G04 Aperture macros list end*
%ADD10C,0.100000*%
%ADD11C,0.120000*%
%ADD12C,0.250000*%
%ADD13RoundRect,0.160000X0.197500X0.160000X-0.197500X0.160000X-0.197500X-0.160000X0.197500X-0.160000X0*%
%ADD14RoundRect,0.160000X-0.197500X-0.160000X0.197500X-0.160000X0.197500X0.160000X-0.197500X0.160000X0*%
%ADD15RoundRect,0.160000X0.160000X-0.197500X0.160000X0.197500X-0.160000X0.197500X-0.160000X-0.197500X0*%
%ADD16RoundRect,0.160000X-0.160000X0.197500X-0.160000X-0.197500X0.160000X-0.197500X0.160000X0.197500X0*%
%ADD17C,2.000000*%
%ADD18C,1.100000*%
%ADD19C,3.200000*%
%ADD20R,1.700000X1.700000*%
%ADD21O,1.700000X1.700000*%
G04 APERTURE END LIST*
D10*
X37856573Y20613747D02*
X38193291Y20950465D01*
X37991260Y20344373D02*
X37519856Y21287182D01*
X37519856Y21287182D02*
X38462665Y20815778D01*
X39035085Y21388198D02*
X38698367Y21051480D01*
X38698367Y21051480D02*
X37991261Y21758587D01*
X39270787Y21623900D02*
X38563680Y22331007D01*
X38563680Y22331007D02*
X38833054Y22600381D01*
X38833054Y22600381D02*
X38934070Y22634053D01*
X38934070Y22634053D02*
X39001413Y22634053D01*
X39001413Y22634053D02*
X39102428Y22600381D01*
X39102428Y22600381D02*
X39203444Y22499366D01*
X39203444Y22499366D02*
X39237115Y22398350D01*
X39237115Y22398350D02*
X39237115Y22331007D01*
X39237115Y22331007D02*
X39203444Y22229992D01*
X39203444Y22229992D02*
X38934070Y21960618D01*
X39910550Y22331007D02*
X40045237Y22398350D01*
X40045237Y22398350D02*
X40213596Y22566709D01*
X40213596Y22566709D02*
X40247268Y22667724D01*
X40247268Y22667724D02*
X40247268Y22735068D01*
X40247268Y22735068D02*
X40213596Y22836083D01*
X40213596Y22836083D02*
X40146253Y22903427D01*
X40146253Y22903427D02*
X40045237Y22937098D01*
X40045237Y22937098D02*
X39977894Y22937098D01*
X39977894Y22937098D02*
X39876879Y22903427D01*
X39876879Y22903427D02*
X39708520Y22802411D01*
X39708520Y22802411D02*
X39607505Y22768740D01*
X39607505Y22768740D02*
X39540161Y22768740D01*
X39540161Y22768740D02*
X39439146Y22802411D01*
X39439146Y22802411D02*
X39371802Y22869755D01*
X39371802Y22869755D02*
X39338131Y22970770D01*
X39338131Y22970770D02*
X39338131Y23038114D01*
X39338131Y23038114D02*
X39371802Y23139129D01*
X39371802Y23139129D02*
X39540161Y23307488D01*
X39540161Y23307488D02*
X39674848Y23374831D01*
D11*
%TO.C,R107*%
X45167621Y27420000D02*
X44832379Y27420000D01*
X45167621Y28180000D02*
X44832379Y28180000D01*
%TO.C,R106*%
X22832379Y28680000D02*
X23167621Y28680000D01*
X22832379Y27920000D02*
X23167621Y27920000D01*
%TO.C,R105*%
X32220000Y15732379D02*
X32220000Y16067621D01*
X32980000Y15732379D02*
X32980000Y16067621D01*
%TO.C,R104*%
X35980000Y37867621D02*
X35980000Y37532379D01*
X35220000Y37867621D02*
X35220000Y37532379D01*
%TO.C,R103*%
X45167621Y24920000D02*
X44832379Y24920000D01*
X45167621Y25680000D02*
X44832379Y25680000D01*
%TO.C,R102*%
X32980000Y37867621D02*
X32980000Y37532379D01*
X32220000Y37867621D02*
X32220000Y37532379D01*
%TO.C,R101*%
X35220000Y15732379D02*
X35220000Y16067621D01*
X35980000Y15732379D02*
X35980000Y16067621D01*
%TO.C,SW101*%
D12*
X34205000Y26780000D02*
G75*
G02*
X33955000Y26780000I-125000J0D01*
G01*
X33955000Y26780000D02*
G75*
G02*
X34205000Y26780000I125000J0D01*
G01*
D10*
X30351812Y35780188D02*
X37807812Y35780188D01*
X43080000Y30508000D02*
X37807812Y35780188D01*
X25079624Y30508000D02*
X30351812Y35780188D01*
X25079624Y30508000D02*
X25079624Y23052000D01*
X34080000Y28280000D02*
X34380000Y27980000D01*
X34080000Y28280000D02*
X33780000Y27980000D01*
X34080000Y27280000D02*
X34080000Y28280000D01*
X35580000Y26780000D02*
X35280000Y27080000D01*
X35580000Y26780000D02*
X35280000Y26480000D01*
X34580000Y26780000D02*
X35580000Y26780000D01*
X33580000Y26780000D02*
X32580000Y26780000D01*
X32580000Y26780000D02*
X32880000Y27080000D01*
X32580000Y26780000D02*
X32880000Y26480000D01*
X34080000Y26280000D02*
X34080000Y25280000D01*
X34080000Y25280000D02*
X34380000Y25580000D01*
X34080000Y25280000D02*
X33780000Y25580000D01*
X43080000Y23052000D02*
X43080000Y30508000D01*
X25079624Y23052000D02*
X30351812Y17779812D01*
X37807812Y17779812D02*
X43080000Y23052000D01*
X30351812Y17779812D02*
X37807812Y17779812D01*
%TD*%
%LPC*%
D13*
%TO.C,R107*%
X45597500Y27800000D03*
X44402500Y27800000D03*
%TD*%
D14*
%TO.C,R106*%
X22402500Y28300000D03*
X23597500Y28300000D03*
%TD*%
D15*
%TO.C,R105*%
X32600000Y15302500D03*
X32600000Y16497500D03*
%TD*%
D16*
%TO.C,R104*%
X35600000Y38297500D03*
X35600000Y37102500D03*
%TD*%
D13*
%TO.C,R103*%
X45597500Y25300000D03*
X44402500Y25300000D03*
%TD*%
D16*
%TO.C,R102*%
X32600000Y38297500D03*
X32600000Y37102500D03*
%TD*%
D15*
%TO.C,R101*%
X35600000Y15302500D03*
X35600000Y16497500D03*
%TD*%
D17*
%TO.C,SW101*%
X37830000Y33640000D03*
X28300000Y25780000D03*
X41060000Y27780000D03*
X26280000Y28280000D03*
X32580000Y18980000D03*
X35580000Y34580000D03*
X41880000Y25280000D03*
X32580000Y34580000D03*
X26280000Y25280000D03*
X35580000Y18980000D03*
D18*
X35580000Y22980000D03*
%TD*%
D19*
%TO.C,MH1*%
X15240000Y50800000D03*
%TD*%
%TO.C,MH2*%
X13970000Y2540000D03*
%TD*%
%TO.C,MH3*%
X66040000Y35560000D03*
%TD*%
%TO.C,MH4*%
X66040000Y7620000D03*
%TD*%
D20*
%TO.C,J1*%
X27940000Y2540000D03*
D21*
X30480000Y2540000D03*
X33020000Y2540000D03*
X35560000Y2540000D03*
X38100000Y2540000D03*
X40640000Y2540000D03*
X43180000Y2540000D03*
X45720000Y2540000D03*
%TD*%
D20*
%TO.C,J3*%
X50800000Y2540000D03*
D21*
X53340000Y2540000D03*
X55880000Y2540000D03*
X58420000Y2540000D03*
X60960000Y2540000D03*
X63500000Y2540000D03*
%TD*%
D20*
%TO.C,J2*%
X18796000Y50800000D03*
D21*
X21336000Y50800000D03*
X23876000Y50800000D03*
X26416000Y50800000D03*
X28956000Y50800000D03*
X31496000Y50800000D03*
X34036000Y50800000D03*
X36576000Y50800000D03*
X39116000Y50800000D03*
X41656000Y50800000D03*
%TD*%
D20*
%TO.C,J4*%
X45720000Y50800000D03*
D21*
X48260000Y50800000D03*
X50800000Y50800000D03*
X53340000Y50800000D03*
X55880000Y50800000D03*
X58420000Y50800000D03*
X60960000Y50800000D03*
X63500000Y50800000D03*
%TD*%
%LPD*%
M02*
