%TF.GenerationSoftware,KiCad,Pcbnew,8.0.1-8.0.1-0~ubuntu23.10.1*%
%TF.CreationDate,2024-04-27T14:30:10-04:00*%
%TF.ProjectId,NavShield,4e617653-6869-4656-9c64-2e6b69636164,rev?*%
%TF.SameCoordinates,Original*%
%TF.FileFunction,Copper,L1,Top*%
%TF.FilePolarity,Positive*%
%FSLAX46Y46*%
G04 Gerber Fmt 4.6, Leading zero omitted, Abs format (unit mm)*
G04 Created by KiCad (PCBNEW 8.0.1-8.0.1-0~ubuntu23.10.1) date 2024-04-27 14:30:10*
%MOMM*%
%LPD*%
G01*
G04 APERTURE LIST*
G04 Aperture macros list*
%AMRoundRect*
0 Rectangle with rounded corners*
0 $1 Rounding radius*
0 $2 $3 $4 $5 $6 $7 $8 $9 X,Y pos of 4 corners*
0 Add a 4 corners polygon primitive as box body*
4,1,4,$2,$3,$4,$5,$6,$7,$8,$9,$2,$3,0*
0 Add four circle primitives for the rounded corners*
1,1,$1+$1,$2,$3*
1,1,$1+$1,$4,$5*
1,1,$1+$1,$6,$7*
1,1,$1+$1,$8,$9*
0 Add four rect primitives between the rounded corners*
20,1,$1+$1,$2,$3,$4,$5,0*
20,1,$1+$1,$4,$5,$6,$7,0*
20,1,$1+$1,$6,$7,$8,$9,0*
20,1,$1+$1,$8,$9,$2,$3,0*%
G04 Aperture macros list end*
%TA.AperFunction,SMDPad,CuDef*%
%ADD10RoundRect,0.160000X0.197500X0.160000X-0.197500X0.160000X-0.197500X-0.160000X0.197500X-0.160000X0*%
%TD*%
%TA.AperFunction,SMDPad,CuDef*%
%ADD11RoundRect,0.160000X-0.197500X-0.160000X0.197500X-0.160000X0.197500X0.160000X-0.197500X0.160000X0*%
%TD*%
%TA.AperFunction,SMDPad,CuDef*%
%ADD12RoundRect,0.160000X0.160000X-0.197500X0.160000X0.197500X-0.160000X0.197500X-0.160000X-0.197500X0*%
%TD*%
%TA.AperFunction,SMDPad,CuDef*%
%ADD13RoundRect,0.160000X-0.160000X0.197500X-0.160000X-0.197500X0.160000X-0.197500X0.160000X0.197500X0*%
%TD*%
%TA.AperFunction,ComponentPad*%
%ADD14C,2.000000*%
%TD*%
%TA.AperFunction,ComponentPad*%
%ADD15R,1.700000X1.700000*%
%TD*%
%TA.AperFunction,ComponentPad*%
%ADD16O,1.700000X1.700000*%
%TD*%
%TA.AperFunction,ViaPad*%
%ADD17C,0.600000*%
%TD*%
%TA.AperFunction,Conductor*%
%ADD18C,0.250000*%
%TD*%
G04 APERTURE END LIST*
D10*
%TO.P,R107,1*%
%TO.N,/\u002A3*%
X45597500Y27800000D03*
%TO.P,R107,2*%
%TO.N,Net-(SW101B-SEL)*%
X44402500Y27800000D03*
%TD*%
D11*
%TO.P,R106,1*%
%TO.N,/\u002A6*%
X22402500Y28300000D03*
%TO.P,R106,2*%
%TO.N,Net-(SW101B-DWN)*%
X23597500Y28300000D03*
%TD*%
D12*
%TO.P,R105,1*%
%TO.N,/7*%
X32600000Y15302500D03*
%TO.P,R105,2*%
%TO.N,Net-(SW101B-RGT)*%
X32600000Y16497500D03*
%TD*%
D13*
%TO.P,R104,1*%
%TO.N,/4*%
X35600000Y38297500D03*
%TO.P,R104,2*%
%TO.N,Net-(SW101B-LFT)*%
X35600000Y37102500D03*
%TD*%
D10*
%TO.P,R103,1*%
%TO.N,/2*%
X45597500Y25300000D03*
%TO.P,R103,2*%
%TO.N,Net-(SW101B-UP)*%
X44402500Y25300000D03*
%TD*%
D13*
%TO.P,R102,1*%
%TO.N,/\u002A5*%
X32600000Y38297500D03*
%TO.P,R102,2*%
%TO.N,Net-(SW101A-B)*%
X32600000Y37102500D03*
%TD*%
D12*
%TO.P,R101,1*%
%TO.N,/8*%
X35600000Y15302500D03*
%TO.P,R101,2*%
%TO.N,Net-(SW101A-A)*%
X35600000Y16497500D03*
%TD*%
D14*
%TO.P,SW101,10,GND*%
%TO.N,GND*%
X37830000Y33640000D03*
%TO.P,SW101,9,COM*%
X28300000Y25780000D03*
%TO.P,SW101,8,SEL*%
%TO.N,Net-(SW101B-SEL)*%
X41060000Y27780000D03*
%TO.P,SW101,7,DWN*%
%TO.N,Net-(SW101B-DWN)*%
X26280000Y28280000D03*
%TO.P,SW101,6,RGT*%
%TO.N,Net-(SW101B-RGT)*%
X32580000Y18980000D03*
%TO.P,SW101,5,LFT*%
%TO.N,Net-(SW101B-LFT)*%
X35580000Y34580000D03*
%TO.P,SW101,4,UP*%
%TO.N,Net-(SW101B-UP)*%
X41880000Y25280000D03*
%TO.P,SW101,3,B*%
%TO.N,Net-(SW101A-B)*%
X32580000Y34580000D03*
%TO.P,SW101,2,C*%
%TO.N,GND*%
X26280000Y25280000D03*
%TO.P,SW101,1,A*%
%TO.N,Net-(SW101A-A)*%
X35580000Y18980000D03*
%TD*%
D15*
%TO.P,J1,1,Pin_1*%
%TO.N,unconnected-(J1-Pin_1-Pad1)*%
X27940000Y2540000D03*
D16*
%TO.P,J1,2,Pin_2*%
%TO.N,/IOREF*%
X30480000Y2540000D03*
%TO.P,J1,3,Pin_3*%
%TO.N,/~{RESET}*%
X33020000Y2540000D03*
%TO.P,J1,4,Pin_4*%
%TO.N,+3V3*%
X35560000Y2540000D03*
%TO.P,J1,5,Pin_5*%
%TO.N,+5V*%
X38100000Y2540000D03*
%TO.P,J1,6,Pin_6*%
%TO.N,GND*%
X40640000Y2540000D03*
%TO.P,J1,7,Pin_7*%
X43180000Y2540000D03*
%TO.P,J1,8,Pin_8*%
%TO.N,VCC*%
X45720000Y2540000D03*
%TD*%
D15*
%TO.P,J3,1,Pin_1*%
%TO.N,/A0*%
X50800000Y2540000D03*
D16*
%TO.P,J3,2,Pin_2*%
%TO.N,/A1*%
X53340000Y2540000D03*
%TO.P,J3,3,Pin_3*%
%TO.N,/A2*%
X55880000Y2540000D03*
%TO.P,J3,4,Pin_4*%
%TO.N,/A3*%
X58420000Y2540000D03*
%TO.P,J3,5,Pin_5*%
%TO.N,unconnected-(J3-Pin_5-Pad5)*%
X60960000Y2540000D03*
%TO.P,J3,6,Pin_6*%
%TO.N,unconnected-(J3-Pin_6-Pad6)*%
X63500000Y2540000D03*
%TD*%
D15*
%TO.P,J2,1,Pin_1*%
%TO.N,/SCL{slash}A5*%
X18796000Y50800000D03*
D16*
%TO.P,J2,2,Pin_2*%
%TO.N,/SDA{slash}A4*%
X21336000Y50800000D03*
%TO.P,J2,3,Pin_3*%
%TO.N,/AREF*%
X23876000Y50800000D03*
%TO.P,J2,4,Pin_4*%
%TO.N,GND*%
X26416000Y50800000D03*
%TO.P,J2,5,Pin_5*%
%TO.N,/13*%
X28956000Y50800000D03*
%TO.P,J2,6,Pin_6*%
%TO.N,/12*%
X31496000Y50800000D03*
%TO.P,J2,7,Pin_7*%
%TO.N,/\u002A11*%
X34036000Y50800000D03*
%TO.P,J2,8,Pin_8*%
%TO.N,/\u002A10*%
X36576000Y50800000D03*
%TO.P,J2,9,Pin_9*%
%TO.N,/\u002A9*%
X39116000Y50800000D03*
%TO.P,J2,10,Pin_10*%
%TO.N,/8*%
X41656000Y50800000D03*
%TD*%
D15*
%TO.P,J4,1,Pin_1*%
%TO.N,/7*%
X45720000Y50800000D03*
D16*
%TO.P,J4,2,Pin_2*%
%TO.N,/\u002A6*%
X48260000Y50800000D03*
%TO.P,J4,3,Pin_3*%
%TO.N,/\u002A5*%
X50800000Y50800000D03*
%TO.P,J4,4,Pin_4*%
%TO.N,/4*%
X53340000Y50800000D03*
%TO.P,J4,5,Pin_5*%
%TO.N,/\u002A3*%
X55880000Y50800000D03*
%TO.P,J4,6,Pin_6*%
%TO.N,/2*%
X58420000Y50800000D03*
%TO.P,J4,7,Pin_7*%
%TO.N,/TX{slash}1*%
X60960000Y50800000D03*
%TO.P,J4,8,Pin_8*%
%TO.N,/RX{slash}0*%
X63500000Y50800000D03*
%TD*%
D17*
%TO.N,GND*%
X34100000Y17300000D03*
X34100000Y36200000D03*
X43700000Y48400000D03*
X47000000Y48400000D03*
X49600000Y48400000D03*
X52100000Y48400000D03*
X43600000Y26500000D03*
%TD*%
D18*
%TO.N,/4*%
X35600000Y38180000D02*
X35720000Y38300000D01*
X35720000Y38300000D02*
X48400000Y38300000D01*
X48400000Y38300000D02*
X53340000Y43240000D01*
X53340000Y43240000D02*
X53340000Y50800000D01*
%TO.N,/\u002A6*%
X22520000Y28300000D02*
X22400000Y28420000D01*
X22400000Y28420000D02*
X22400000Y34800000D01*
X22400000Y34800000D02*
X27400000Y39800000D01*
X27400000Y39800000D02*
X44500000Y39800000D01*
X44500000Y39800000D02*
X48260000Y43560000D01*
X48260000Y43560000D02*
X48260000Y50800000D01*
%TO.N,/7*%
X32600000Y15420000D02*
X32480000Y15300000D01*
X32480000Y15300000D02*
X27900000Y15300000D01*
X21700000Y21500000D02*
X21700000Y34900000D01*
X27900000Y15300000D02*
X21700000Y21500000D01*
X41850000Y40250000D02*
X45720000Y44120000D01*
X21700000Y34900000D02*
X27050000Y40250000D01*
X27050000Y40250000D02*
X41850000Y40250000D01*
X45720000Y44120000D02*
X45720000Y50800000D01*
%TO.N,/\u002A5*%
X50800000Y42000000D02*
X50800000Y50800000D01*
X48100000Y39300000D02*
X50800000Y42000000D01*
X33000000Y39300000D02*
X48100000Y39300000D01*
X32600000Y38900000D02*
X33000000Y39300000D01*
X32600000Y38180000D02*
X32600000Y38900000D01*
%TO.N,/8*%
X35300000Y14500000D02*
X35600000Y14800000D01*
X27800000Y14500000D02*
X35300000Y14500000D01*
X35600000Y14800000D02*
X35600000Y15420000D01*
X21200000Y35200000D02*
X21200000Y21100000D01*
X21200000Y21100000D02*
X27800000Y14500000D01*
X40300000Y40700000D02*
X26700000Y40700000D01*
X26700000Y40700000D02*
X21200000Y35200000D01*
X41656000Y42056000D02*
X40300000Y40700000D01*
X41656000Y50800000D02*
X41656000Y42056000D01*
%TO.N,/\u002A3*%
X55880000Y50800000D02*
X55880000Y30980000D01*
X55880000Y30980000D02*
X52700000Y27800000D01*
X52700000Y27800000D02*
X45480000Y27800000D01*
%TO.N,/2*%
X45480000Y25300000D02*
X53000000Y25300000D01*
X53000000Y25300000D02*
X58420000Y30720000D01*
X58420000Y30720000D02*
X58420000Y50800000D01*
%TO.N,Net-(SW101B-LFT)*%
X35600000Y37220000D02*
X35600000Y34600000D01*
X35600000Y34600000D02*
X35580000Y34580000D01*
%TO.N,Net-(SW101A-B)*%
X32580000Y34580000D02*
X32580000Y37200000D01*
X32580000Y37200000D02*
X32600000Y37220000D01*
%TO.N,Net-(SW101B-DWN)*%
X26280000Y28280000D02*
X23500000Y28280000D01*
X23500000Y28280000D02*
X23480000Y28300000D01*
%TO.N,Net-(SW101B-RGT)*%
X32580000Y18980000D02*
X32580000Y16400000D01*
X32580000Y16400000D02*
X32600000Y16380000D01*
%TO.N,Net-(SW101A-A)*%
X35600000Y16380000D02*
X35600000Y18960000D01*
X35600000Y18960000D02*
X35580000Y18980000D01*
%TO.N,Net-(SW101B-UP)*%
X44520000Y25300000D02*
X41900000Y25300000D01*
X41900000Y25300000D02*
X41880000Y25280000D01*
%TO.N,Net-(SW101B-SEL)*%
X44520000Y27800000D02*
X41080000Y27800000D01*
X41080000Y27800000D02*
X41060000Y27780000D01*
%TD*%
%TA.AperFunction,Conductor*%
%TO.N,GND*%
G36*
X42714075Y2732993D02*
G01*
X42680000Y2605826D01*
X42680000Y2474174D01*
X42714075Y2347007D01*
X42746988Y2290000D01*
X41073012Y2290000D01*
X41105925Y2347007D01*
X41140000Y2474174D01*
X41140000Y2605826D01*
X41105925Y2732993D01*
X41073012Y2790000D01*
X42746988Y2790000D01*
X42714075Y2732993D01*
G37*
%TD.AperFunction*%
%TA.AperFunction,Conductor*%
G36*
X34143273Y18442033D02*
G01*
X34190884Y18390896D01*
X34194561Y18382843D01*
X34231757Y18293041D01*
X34231759Y18293038D01*
X34355820Y18090590D01*
X34355821Y18090587D01*
X34355824Y18090584D01*
X34510031Y17910031D01*
X34649797Y17790660D01*
X34690586Y17755822D01*
X34690589Y17755821D01*
X34893037Y17631760D01*
X34897381Y17629546D01*
X34896473Y17627765D01*
X34944316Y17589255D01*
X34966418Y17522973D01*
X34966500Y17518477D01*
X34966500Y17218264D01*
X34946815Y17151225D01*
X34930181Y17130583D01*
X34909902Y17110305D01*
X34909899Y17110301D01*
X34825918Y16971378D01*
X34825916Y16971374D01*
X34777621Y16816388D01*
X34771500Y16749028D01*
X34771500Y16245973D01*
X34777621Y16178613D01*
X34825916Y16023627D01*
X34825918Y16023623D01*
X34861871Y15964148D01*
X34879706Y15896593D01*
X34861871Y15835852D01*
X34825918Y15776378D01*
X34825916Y15776374D01*
X34777621Y15621388D01*
X34771500Y15554028D01*
X34771500Y15257500D01*
X34751815Y15190461D01*
X34699011Y15144706D01*
X34647500Y15133500D01*
X33552500Y15133500D01*
X33485461Y15153185D01*
X33439706Y15205989D01*
X33428500Y15257500D01*
X33428500Y15554028D01*
X33428500Y15554030D01*
X33422379Y15621386D01*
X33374082Y15776376D01*
X33338127Y15835853D01*
X33320292Y15903404D01*
X33338127Y15964148D01*
X33374082Y16023624D01*
X33422379Y16178614D01*
X33428500Y16245970D01*
X33428500Y16749030D01*
X33422379Y16816386D01*
X33374082Y16971376D01*
X33374081Y16971378D01*
X33290100Y17110301D01*
X33290097Y17110305D01*
X33249819Y17150583D01*
X33216334Y17211906D01*
X33213500Y17238264D01*
X33213500Y17529555D01*
X33233185Y17596594D01*
X33272710Y17635282D01*
X33469411Y17755821D01*
X33469413Y17755822D01*
X33469413Y17755823D01*
X33469416Y17755824D01*
X33649969Y17910031D01*
X33804176Y18090584D01*
X33928240Y18293037D01*
X33965439Y18382843D01*
X34009279Y18437247D01*
X34075573Y18459312D01*
X34143273Y18442033D01*
G37*
%TD.AperFunction*%
%TA.AperFunction,Conductor*%
G36*
X27358380Y27121889D02*
G01*
X27410857Y27075759D01*
X27430063Y27008581D01*
X27429892Y27003660D01*
X28170590Y26262963D01*
X28107007Y26245925D01*
X27992993Y26180099D01*
X27899901Y26087007D01*
X27834075Y25972993D01*
X27817037Y25909410D01*
X27076562Y26649885D01*
X27061757Y26648349D01*
X27039800Y26629611D01*
X26970569Y26620190D01*
X26930125Y26633736D01*
X26884614Y26658365D01*
X26884604Y26658370D01*
X26878721Y26660389D01*
X26821706Y26700774D01*
X26795575Y26765574D01*
X26808626Y26834214D01*
X26856715Y26884901D01*
X26871532Y26892231D01*
X26966959Y26931758D01*
X26966960Y26931759D01*
X26966963Y26931760D01*
X27169416Y27055824D01*
X27225536Y27103756D01*
X27289294Y27132326D01*
X27358380Y27121889D01*
G37*
%TD.AperFunction*%
%TA.AperFunction,Conductor*%
G36*
X57231905Y50126485D02*
G01*
X57253804Y50101213D01*
X57344278Y49962732D01*
X57344283Y49962727D01*
X57344284Y49962724D01*
X57470968Y49825111D01*
X57496760Y49797094D01*
X57674424Y49658811D01*
X57674426Y49658810D01*
X57674433Y49658805D01*
X57721516Y49633326D01*
X57771107Y49584108D01*
X57786500Y49524271D01*
X57786500Y31033767D01*
X57766815Y30966728D01*
X57750181Y30946086D01*
X52773915Y25969819D01*
X52712592Y25936334D01*
X52686234Y25933500D01*
X46318264Y25933500D01*
X46251225Y25953185D01*
X46230583Y25969819D01*
X46210304Y25990098D01*
X46210300Y25990101D01*
X46071377Y26074082D01*
X46071373Y26074084D01*
X45916386Y26122379D01*
X45916388Y26122379D01*
X45889443Y26124828D01*
X45849030Y26128500D01*
X45345970Y26128500D01*
X45305556Y26124828D01*
X45278612Y26122379D01*
X45123626Y26074084D01*
X45123622Y26074082D01*
X45064148Y26038129D01*
X44996593Y26020294D01*
X44935852Y26038129D01*
X44876377Y26074082D01*
X44876373Y26074084D01*
X44721386Y26122379D01*
X44721388Y26122379D01*
X44694443Y26124828D01*
X44654030Y26128500D01*
X44150970Y26128500D01*
X44110556Y26124828D01*
X44083612Y26122379D01*
X43928626Y26074084D01*
X43928622Y26074082D01*
X43789699Y25990101D01*
X43789695Y25990098D01*
X43769417Y25969819D01*
X43708094Y25936334D01*
X43681736Y25933500D01*
X43318190Y25933500D01*
X43251151Y25953185D01*
X43212463Y25992710D01*
X43104179Y26169411D01*
X43104178Y26169414D01*
X42995252Y26296949D01*
X42949969Y26349969D01*
X42770079Y26503610D01*
X42769413Y26504179D01*
X42769410Y26504180D01*
X42566962Y26628241D01*
X42566959Y26628243D01*
X42347340Y26719211D01*
X42292936Y26763052D01*
X42270871Y26829346D01*
X42288150Y26897045D01*
X42289065Y26898562D01*
X42309409Y26931760D01*
X42408240Y27093037D01*
X42408242Y27093043D01*
X42410454Y27097381D01*
X42412222Y27096481D01*
X42450808Y27144359D01*
X42517103Y27166421D01*
X42521524Y27166500D01*
X43681736Y27166500D01*
X43748775Y27146815D01*
X43769417Y27130181D01*
X43789695Y27109903D01*
X43789699Y27109900D01*
X43928622Y27025919D01*
X43928626Y27025917D01*
X43983448Y27008834D01*
X44083614Y26977621D01*
X44150970Y26971500D01*
X44150973Y26971500D01*
X44654027Y26971500D01*
X44654030Y26971500D01*
X44721386Y26977621D01*
X44876376Y27025918D01*
X44935852Y27061873D01*
X45003404Y27079708D01*
X45064147Y27061873D01*
X45123624Y27025918D01*
X45123627Y27025917D01*
X45123626Y27025917D01*
X45178448Y27008834D01*
X45278614Y26977621D01*
X45345970Y26971500D01*
X45345973Y26971500D01*
X45849027Y26971500D01*
X45849030Y26971500D01*
X45916386Y26977621D01*
X46071376Y27025918D01*
X46210305Y27109903D01*
X46230583Y27130181D01*
X46291906Y27163666D01*
X46318264Y27166500D01*
X52762395Y27166500D01*
X52762396Y27166501D01*
X52884785Y27190845D01*
X53000075Y27238600D01*
X53103833Y27307929D01*
X56372071Y30576167D01*
X56441400Y30679925D01*
X56489155Y30795215D01*
X56513500Y30917606D01*
X56513500Y31042394D01*
X56513500Y49524271D01*
X56533185Y49591310D01*
X56578484Y49633326D01*
X56625566Y49658805D01*
X56625572Y49658809D01*
X56625576Y49658811D01*
X56803240Y49797094D01*
X56924594Y49928918D01*
X56955715Y49962724D01*
X56955715Y49962725D01*
X56955722Y49962732D01*
X57046193Y50101210D01*
X57099338Y50146563D01*
X57168569Y50155987D01*
X57231905Y50126485D01*
G37*
%TD.AperFunction*%
%TA.AperFunction,Conductor*%
G36*
X34714539Y38646815D02*
G01*
X34760294Y38594011D01*
X34771500Y38542500D01*
X34771500Y38045973D01*
X34777621Y37978613D01*
X34825916Y37823627D01*
X34825918Y37823623D01*
X34861871Y37764148D01*
X34879706Y37696593D01*
X34861871Y37635852D01*
X34825918Y37576378D01*
X34825916Y37576374D01*
X34777621Y37421388D01*
X34771500Y37354028D01*
X34771500Y36850973D01*
X34777621Y36783613D01*
X34825916Y36628627D01*
X34825918Y36628623D01*
X34909899Y36489700D01*
X34909902Y36489696D01*
X34930181Y36469417D01*
X34963666Y36408094D01*
X34966500Y36381736D01*
X34966500Y36041524D01*
X34946815Y35974485D01*
X34896952Y35931279D01*
X34897375Y35930450D01*
X34894027Y35928745D01*
X34894011Y35928730D01*
X34893929Y35928695D01*
X34893030Y35928237D01*
X34690589Y35804180D01*
X34690586Y35804179D01*
X34510031Y35649969D01*
X34355821Y35469414D01*
X34355820Y35469411D01*
X34231759Y35266963D01*
X34231757Y35266960D01*
X34194561Y35177158D01*
X34150720Y35122754D01*
X34084426Y35100689D01*
X34016727Y35117968D01*
X33969116Y35169105D01*
X33965439Y35177158D01*
X33928242Y35266960D01*
X33928240Y35266963D01*
X33804178Y35469412D01*
X33804178Y35469414D01*
X33769340Y35510203D01*
X33649969Y35649969D01*
X33530596Y35751924D01*
X33469413Y35804179D01*
X33469410Y35804180D01*
X33272710Y35924719D01*
X33225835Y35976531D01*
X33213500Y36030446D01*
X33213500Y36361736D01*
X33233185Y36428775D01*
X33249819Y36449417D01*
X33269819Y36469417D01*
X33290097Y36489695D01*
X33374082Y36628624D01*
X33422379Y36783614D01*
X33428500Y36850970D01*
X33428500Y37354030D01*
X33422379Y37421386D01*
X33374082Y37576376D01*
X33338127Y37635853D01*
X33320292Y37703404D01*
X33338127Y37764148D01*
X33374082Y37823624D01*
X33422379Y37978614D01*
X33428500Y38045970D01*
X33428500Y38542500D01*
X33448185Y38609539D01*
X33500989Y38655294D01*
X33552500Y38666500D01*
X34647500Y38666500D01*
X34714539Y38646815D01*
G37*
%TD.AperFunction*%
%TA.AperFunction,Conductor*%
G36*
X49611905Y50126485D02*
G01*
X49633804Y50101213D01*
X49724278Y49962732D01*
X49724283Y49962727D01*
X49724284Y49962724D01*
X49850968Y49825111D01*
X49876760Y49797094D01*
X50054424Y49658811D01*
X50054426Y49658810D01*
X50054433Y49658805D01*
X50101516Y49633326D01*
X50151107Y49584108D01*
X50166500Y49524271D01*
X50166500Y42313767D01*
X50146815Y42246728D01*
X50130181Y42226086D01*
X47873915Y39969819D01*
X47812592Y39936334D01*
X47786234Y39933500D01*
X45828766Y39933500D01*
X45761727Y39953185D01*
X45715972Y40005989D01*
X45706028Y40075147D01*
X45735053Y40138703D01*
X45741085Y40145181D01*
X48752068Y43156164D01*
X48752071Y43156167D01*
X48821400Y43259925D01*
X48869155Y43375215D01*
X48893500Y43497606D01*
X48893500Y43622394D01*
X48893500Y49524271D01*
X48913185Y49591310D01*
X48958484Y49633326D01*
X49005566Y49658805D01*
X49005572Y49658809D01*
X49005576Y49658811D01*
X49183240Y49797094D01*
X49304594Y49928918D01*
X49335715Y49962724D01*
X49335715Y49962725D01*
X49335722Y49962732D01*
X49426193Y50101210D01*
X49479338Y50146563D01*
X49548569Y50155987D01*
X49611905Y50126485D01*
G37*
%TD.AperFunction*%
%TA.AperFunction,Conductor*%
G36*
X47241746Y49890609D02*
G01*
X47273545Y49865764D01*
X47336760Y49797094D01*
X47514424Y49658811D01*
X47514426Y49658810D01*
X47514433Y49658805D01*
X47561516Y49633326D01*
X47611107Y49584108D01*
X47626500Y49524271D01*
X47626500Y43873766D01*
X47606815Y43806727D01*
X47590181Y43786085D01*
X44273915Y40469819D01*
X44212592Y40436334D01*
X44186234Y40433500D01*
X43228766Y40433500D01*
X43161727Y40453185D01*
X43115972Y40505989D01*
X43106028Y40575147D01*
X43135053Y40638703D01*
X43141085Y40645181D01*
X46212068Y43716164D01*
X46212071Y43716167D01*
X46281400Y43819925D01*
X46329155Y43935215D01*
X46353500Y44057606D01*
X46353500Y49317500D01*
X46373185Y49384539D01*
X46425989Y49430294D01*
X46477500Y49441500D01*
X46618638Y49441500D01*
X46618654Y49441501D01*
X46645692Y49444409D01*
X46679201Y49448011D01*
X46816204Y49499111D01*
X46933261Y49586739D01*
X47020889Y49703796D01*
X47066138Y49825113D01*
X47108009Y49881044D01*
X47173474Y49905461D01*
X47241746Y49890609D01*
G37*
%TD.AperFunction*%
%TA.AperFunction,Conductor*%
G36*
X52151905Y50126485D02*
G01*
X52173804Y50101213D01*
X52264278Y49962732D01*
X52264283Y49962727D01*
X52264284Y49962724D01*
X52390968Y49825111D01*
X52416760Y49797094D01*
X52594424Y49658811D01*
X52594426Y49658810D01*
X52594433Y49658805D01*
X52641516Y49633326D01*
X52691107Y49584108D01*
X52706500Y49524271D01*
X52706500Y43553766D01*
X52686815Y43486727D01*
X52670181Y43466085D01*
X51645181Y42441085D01*
X51583858Y42407600D01*
X51514166Y42412584D01*
X51458233Y42454456D01*
X51433816Y42519920D01*
X51433500Y42528766D01*
X51433500Y49524271D01*
X51453185Y49591310D01*
X51498484Y49633326D01*
X51545566Y49658805D01*
X51545572Y49658809D01*
X51545576Y49658811D01*
X51723240Y49797094D01*
X51844594Y49928918D01*
X51875715Y49962724D01*
X51875715Y49962725D01*
X51875722Y49962732D01*
X51966193Y50101210D01*
X52019338Y50146563D01*
X52088569Y50155987D01*
X52151905Y50126485D01*
G37*
%TD.AperFunction*%
%TA.AperFunction,Conductor*%
G36*
X65284061Y53263903D02*
G01*
X65399777Y53252506D01*
X65423612Y53247766D01*
X65529037Y53215785D01*
X65551476Y53206490D01*
X65648629Y53154561D01*
X65668839Y53141057D01*
X65753988Y53071177D01*
X65771176Y53053989D01*
X65841056Y52968840D01*
X65854561Y52948628D01*
X65906486Y52851483D01*
X65915786Y52829032D01*
X65942625Y52740555D01*
X65947763Y52723619D01*
X65952505Y52699779D01*
X65963903Y52584063D01*
X65964500Y52571908D01*
X65964500Y40928568D01*
X65964520Y40928360D01*
X65964519Y40889722D01*
X65985136Y40759519D01*
X65985137Y40759515D01*
X66025864Y40634154D01*
X66025867Y40634146D01*
X66085710Y40516688D01*
X66085712Y40516685D01*
X66085716Y40516678D01*
X66163185Y40410045D01*
X66163191Y40410038D01*
X66209796Y40363431D01*
X66209797Y40363430D01*
X66244580Y40328645D01*
X66244586Y40328641D01*
X68299118Y38274109D01*
X68307285Y38265099D01*
X68381056Y38175202D01*
X68394549Y38155007D01*
X68446476Y38057849D01*
X68455775Y38035398D01*
X68487748Y37929984D01*
X68492489Y37906142D01*
X68503902Y37790213D01*
X68504499Y37778061D01*
X68504498Y37735185D01*
X68504500Y37735176D01*
X68504500Y3656602D01*
X68504498Y3656584D01*
X68504499Y3623717D01*
X68503902Y3611563D01*
X68492510Y3495860D01*
X68487768Y3472014D01*
X68455792Y3366604D01*
X68446488Y3344145D01*
X68394566Y3247009D01*
X68381057Y3226793D01*
X68307244Y3136863D01*
X68299081Y3127856D01*
X68286091Y3114865D01*
X68286090Y3114866D01*
X68286085Y3114859D01*
X65452109Y280883D01*
X65443089Y272708D01*
X65353210Y198952D01*
X65332999Y185448D01*
X65235853Y133526D01*
X65213395Y124224D01*
X65107986Y92252D01*
X65084143Y87511D01*
X64968212Y76098D01*
X64956060Y75501D01*
X64913185Y75502D01*
X64913175Y75500D01*
X768093Y75500D01*
X755939Y76097D01*
X747995Y76880D01*
X640221Y87495D01*
X616381Y92237D01*
X599445Y97375D01*
X510968Y124214D01*
X488517Y133514D01*
X391372Y185439D01*
X371160Y198944D01*
X286011Y268824D01*
X268823Y286012D01*
X198943Y371161D01*
X185438Y391373D01*
X133510Y488524D01*
X124215Y510963D01*
X92234Y616388D01*
X87494Y640223D01*
X76097Y755939D01*
X75500Y768093D01*
X75500Y1641346D01*
X26581500Y1641346D01*
X26588011Y1580798D01*
X26588011Y1580796D01*
X26639111Y1443796D01*
X26726739Y1326739D01*
X26843796Y1239111D01*
X26980799Y1188011D01*
X27008050Y1185082D01*
X27041345Y1181501D01*
X27041362Y1181500D01*
X28838638Y1181500D01*
X28838654Y1181501D01*
X28865692Y1184409D01*
X28899201Y1188011D01*
X29036204Y1239111D01*
X29153261Y1326739D01*
X29240889Y1443796D01*
X29286138Y1565113D01*
X29328009Y1621044D01*
X29393474Y1645461D01*
X29461746Y1630609D01*
X29493545Y1605764D01*
X29556760Y1537094D01*
X29734424Y1398811D01*
X29734425Y1398811D01*
X29734427Y1398809D01*
X29794314Y1366400D01*
X29932426Y1291658D01*
X30145365Y1218556D01*
X30367431Y1181500D01*
X30592569Y1181500D01*
X30814635Y1218556D01*
X31027574Y1291658D01*
X31225576Y1398811D01*
X31403240Y1537094D01*
X31524594Y1668918D01*
X31555715Y1702724D01*
X31555715Y1702725D01*
X31555722Y1702732D01*
X31646193Y1841210D01*
X31699338Y1886563D01*
X31768569Y1895987D01*
X31831905Y1866485D01*
X31853804Y1841213D01*
X31944278Y1702732D01*
X31944283Y1702727D01*
X31944284Y1702724D01*
X32070968Y1565111D01*
X32096760Y1537094D01*
X32274424Y1398811D01*
X32274425Y1398811D01*
X32274427Y1398809D01*
X32334314Y1366400D01*
X32472426Y1291658D01*
X32685365Y1218556D01*
X32907431Y1181500D01*
X33132569Y1181500D01*
X33354635Y1218556D01*
X33567574Y1291658D01*
X33765576Y1398811D01*
X33943240Y1537094D01*
X34064594Y1668918D01*
X34095715Y1702724D01*
X34095715Y1702725D01*
X34095722Y1702732D01*
X34186193Y1841210D01*
X34239338Y1886563D01*
X34308569Y1895987D01*
X34371905Y1866485D01*
X34393804Y1841213D01*
X34484278Y1702732D01*
X34484283Y1702727D01*
X34484284Y1702724D01*
X34610968Y1565111D01*
X34636760Y1537094D01*
X34814424Y1398811D01*
X34814425Y1398811D01*
X34814427Y1398809D01*
X34874314Y1366400D01*
X35012426Y1291658D01*
X35225365Y1218556D01*
X35447431Y1181500D01*
X35672569Y1181500D01*
X35894635Y1218556D01*
X36107574Y1291658D01*
X36305576Y1398811D01*
X36483240Y1537094D01*
X36604594Y1668918D01*
X36635715Y1702724D01*
X36635715Y1702725D01*
X36635722Y1702732D01*
X36726193Y1841210D01*
X36779338Y1886563D01*
X36848569Y1895987D01*
X36911905Y1866485D01*
X36933804Y1841213D01*
X37024278Y1702732D01*
X37024283Y1702727D01*
X37024284Y1702724D01*
X37150968Y1565111D01*
X37176760Y1537094D01*
X37354424Y1398811D01*
X37354425Y1398811D01*
X37354427Y1398809D01*
X37414314Y1366400D01*
X37552426Y1291658D01*
X37765365Y1218556D01*
X37987431Y1181500D01*
X38212569Y1181500D01*
X38434635Y1218556D01*
X38647574Y1291658D01*
X38845576Y1398811D01*
X39023240Y1537094D01*
X39144594Y1668918D01*
X39175715Y1702724D01*
X39175715Y1702725D01*
X39175722Y1702732D01*
X39269749Y1846653D01*
X39322894Y1892006D01*
X39392125Y1901430D01*
X39455461Y1871928D01*
X39475130Y1849952D01*
X39601890Y1668922D01*
X39768917Y1501895D01*
X39962421Y1366400D01*
X40176507Y1266571D01*
X40176516Y1266567D01*
X40390000Y1209366D01*
X40390000Y2106988D01*
X40447007Y2074075D01*
X40574174Y2040000D01*
X40705826Y2040000D01*
X40832993Y2074075D01*
X40890000Y2106988D01*
X40890000Y1209367D01*
X41103483Y1266567D01*
X41103492Y1266571D01*
X41317578Y1366400D01*
X41511082Y1501895D01*
X41678105Y1668918D01*
X41808425Y1855032D01*
X41863002Y1898656D01*
X41932501Y1905849D01*
X41994855Y1874327D01*
X42011575Y1855032D01*
X42141894Y1668918D01*
X42308917Y1501895D01*
X42502421Y1366400D01*
X42716507Y1266571D01*
X42716516Y1266567D01*
X42930000Y1209366D01*
X42930000Y2106988D01*
X42987007Y2074075D01*
X43114174Y2040000D01*
X43245826Y2040000D01*
X43372993Y2074075D01*
X43430000Y2106988D01*
X43430000Y1209367D01*
X43643483Y1266567D01*
X43643492Y1266571D01*
X43857578Y1366400D01*
X44051082Y1501895D01*
X44218105Y1668918D01*
X44344868Y1849952D01*
X44399445Y1893577D01*
X44468944Y1900769D01*
X44531298Y1869247D01*
X44550251Y1846650D01*
X44644276Y1702735D01*
X44644284Y1702724D01*
X44770968Y1565111D01*
X44796760Y1537094D01*
X44974424Y1398811D01*
X44974425Y1398811D01*
X44974427Y1398809D01*
X45034314Y1366400D01*
X45172426Y1291658D01*
X45385365Y1218556D01*
X45607431Y1181500D01*
X45832569Y1181500D01*
X46054635Y1218556D01*
X46267574Y1291658D01*
X46465576Y1398811D01*
X46643240Y1537094D01*
X46739212Y1641346D01*
X49441500Y1641346D01*
X49448011Y1580798D01*
X49448011Y1580796D01*
X49499111Y1443796D01*
X49586739Y1326739D01*
X49703796Y1239111D01*
X49840799Y1188011D01*
X49868050Y1185082D01*
X49901345Y1181501D01*
X49901362Y1181500D01*
X51698638Y1181500D01*
X51698654Y1181501D01*
X51725692Y1184409D01*
X51759201Y1188011D01*
X51896204Y1239111D01*
X52013261Y1326739D01*
X52100889Y1443796D01*
X52146138Y1565113D01*
X52188009Y1621044D01*
X52253474Y1645461D01*
X52321746Y1630609D01*
X52353545Y1605764D01*
X52416760Y1537094D01*
X52594424Y1398811D01*
X52594425Y1398811D01*
X52594427Y1398809D01*
X52654314Y1366400D01*
X52792426Y1291658D01*
X53005365Y1218556D01*
X53227431Y1181500D01*
X53452569Y1181500D01*
X53674635Y1218556D01*
X53887574Y1291658D01*
X54085576Y1398811D01*
X54263240Y1537094D01*
X54384594Y1668918D01*
X54415715Y1702724D01*
X54415715Y1702725D01*
X54415722Y1702732D01*
X54506193Y1841210D01*
X54559338Y1886563D01*
X54628569Y1895987D01*
X54691905Y1866485D01*
X54713804Y1841213D01*
X54804278Y1702732D01*
X54804283Y1702727D01*
X54804284Y1702724D01*
X54930968Y1565111D01*
X54956760Y1537094D01*
X55134424Y1398811D01*
X55134425Y1398811D01*
X55134427Y1398809D01*
X55194314Y1366400D01*
X55332426Y1291658D01*
X55545365Y1218556D01*
X55767431Y1181500D01*
X55992569Y1181500D01*
X56214635Y1218556D01*
X56427574Y1291658D01*
X56625576Y1398811D01*
X56803240Y1537094D01*
X56924594Y1668918D01*
X56955715Y1702724D01*
X56955715Y1702725D01*
X56955722Y1702732D01*
X57046193Y1841210D01*
X57099338Y1886563D01*
X57168569Y1895987D01*
X57231905Y1866485D01*
X57253804Y1841213D01*
X57344278Y1702732D01*
X57344283Y1702727D01*
X57344284Y1702724D01*
X57470968Y1565111D01*
X57496760Y1537094D01*
X57674424Y1398811D01*
X57674425Y1398811D01*
X57674427Y1398809D01*
X57734314Y1366400D01*
X57872426Y1291658D01*
X58085365Y1218556D01*
X58307431Y1181500D01*
X58532569Y1181500D01*
X58754635Y1218556D01*
X58967574Y1291658D01*
X59165576Y1398811D01*
X59343240Y1537094D01*
X59464594Y1668918D01*
X59495715Y1702724D01*
X59495715Y1702725D01*
X59495722Y1702732D01*
X59586193Y1841210D01*
X59639338Y1886563D01*
X59708569Y1895987D01*
X59771905Y1866485D01*
X59793804Y1841213D01*
X59884278Y1702732D01*
X59884283Y1702727D01*
X59884284Y1702724D01*
X60010968Y1565111D01*
X60036760Y1537094D01*
X60214424Y1398811D01*
X60214425Y1398811D01*
X60214427Y1398809D01*
X60274314Y1366400D01*
X60412426Y1291658D01*
X60625365Y1218556D01*
X60847431Y1181500D01*
X61072569Y1181500D01*
X61294635Y1218556D01*
X61507574Y1291658D01*
X61705576Y1398811D01*
X61883240Y1537094D01*
X62004594Y1668918D01*
X62035715Y1702724D01*
X62035715Y1702725D01*
X62035722Y1702732D01*
X62126193Y1841210D01*
X62179338Y1886563D01*
X62248569Y1895987D01*
X62311905Y1866485D01*
X62333804Y1841213D01*
X62424278Y1702732D01*
X62424283Y1702727D01*
X62424284Y1702724D01*
X62550968Y1565111D01*
X62576760Y1537094D01*
X62754424Y1398811D01*
X62754425Y1398811D01*
X62754427Y1398809D01*
X62814314Y1366400D01*
X62952426Y1291658D01*
X63165365Y1218556D01*
X63387431Y1181500D01*
X63612569Y1181500D01*
X63834635Y1218556D01*
X64047574Y1291658D01*
X64245576Y1398811D01*
X64423240Y1537094D01*
X64544594Y1668918D01*
X64575715Y1702724D01*
X64575717Y1702727D01*
X64575722Y1702732D01*
X64698860Y1891209D01*
X64789296Y2097384D01*
X64844564Y2315632D01*
X64847164Y2347007D01*
X64863156Y2539995D01*
X64863156Y2540006D01*
X64844565Y2764360D01*
X64844563Y2764372D01*
X64789296Y2982615D01*
X64779071Y3005925D01*
X64698860Y3188791D01*
X64682706Y3213516D01*
X64575723Y3377266D01*
X64575715Y3377277D01*
X64423243Y3542903D01*
X64423238Y3542908D01*
X64245577Y3681188D01*
X64245572Y3681192D01*
X64047580Y3788339D01*
X64047577Y3788341D01*
X64047574Y3788342D01*
X64047571Y3788343D01*
X64047569Y3788344D01*
X63834637Y3861444D01*
X63612569Y3898500D01*
X63387431Y3898500D01*
X63165362Y3861444D01*
X62952430Y3788344D01*
X62952419Y3788339D01*
X62754427Y3681192D01*
X62754422Y3681188D01*
X62576761Y3542908D01*
X62576756Y3542903D01*
X62424284Y3377277D01*
X62424276Y3377266D01*
X62333808Y3238794D01*
X62280662Y3193438D01*
X62211431Y3184014D01*
X62148095Y3213516D01*
X62126192Y3238794D01*
X62035723Y3377266D01*
X62035715Y3377277D01*
X61883243Y3542903D01*
X61883238Y3542908D01*
X61705577Y3681188D01*
X61705572Y3681192D01*
X61507580Y3788339D01*
X61507577Y3788341D01*
X61507574Y3788342D01*
X61507571Y3788343D01*
X61507569Y3788344D01*
X61294637Y3861444D01*
X61072569Y3898500D01*
X60847431Y3898500D01*
X60625362Y3861444D01*
X60412430Y3788344D01*
X60412419Y3788339D01*
X60214427Y3681192D01*
X60214422Y3681188D01*
X60036761Y3542908D01*
X60036756Y3542903D01*
X59884284Y3377277D01*
X59884276Y3377266D01*
X59793808Y3238794D01*
X59740662Y3193438D01*
X59671431Y3184014D01*
X59608095Y3213516D01*
X59586192Y3238794D01*
X59495723Y3377266D01*
X59495715Y3377277D01*
X59343243Y3542903D01*
X59343238Y3542908D01*
X59165577Y3681188D01*
X59165572Y3681192D01*
X58967580Y3788339D01*
X58967577Y3788341D01*
X58967574Y3788342D01*
X58967571Y3788343D01*
X58967569Y3788344D01*
X58754637Y3861444D01*
X58532569Y3898500D01*
X58307431Y3898500D01*
X58085362Y3861444D01*
X57872430Y3788344D01*
X57872419Y3788339D01*
X57674427Y3681192D01*
X57674422Y3681188D01*
X57496761Y3542908D01*
X57496756Y3542903D01*
X57344284Y3377277D01*
X57344276Y3377266D01*
X57253808Y3238794D01*
X57200662Y3193438D01*
X57131431Y3184014D01*
X57068095Y3213516D01*
X57046192Y3238794D01*
X56955723Y3377266D01*
X56955715Y3377277D01*
X56803243Y3542903D01*
X56803238Y3542908D01*
X56625577Y3681188D01*
X56625572Y3681192D01*
X56427580Y3788339D01*
X56427577Y3788341D01*
X56427574Y3788342D01*
X56427571Y3788343D01*
X56427569Y3788344D01*
X56214637Y3861444D01*
X55992569Y3898500D01*
X55767431Y3898500D01*
X55545362Y3861444D01*
X55332430Y3788344D01*
X55332419Y3788339D01*
X55134427Y3681192D01*
X55134422Y3681188D01*
X54956761Y3542908D01*
X54956756Y3542903D01*
X54804284Y3377277D01*
X54804276Y3377266D01*
X54713808Y3238794D01*
X54660662Y3193438D01*
X54591431Y3184014D01*
X54528095Y3213516D01*
X54506192Y3238794D01*
X54415723Y3377266D01*
X54415715Y3377277D01*
X54263243Y3542903D01*
X54263238Y3542908D01*
X54085577Y3681188D01*
X54085572Y3681192D01*
X53887580Y3788339D01*
X53887577Y3788341D01*
X53887574Y3788342D01*
X53887571Y3788343D01*
X53887569Y3788344D01*
X53674637Y3861444D01*
X53452569Y3898500D01*
X53227431Y3898500D01*
X53005362Y3861444D01*
X52792430Y3788344D01*
X52792419Y3788339D01*
X52594427Y3681192D01*
X52594422Y3681188D01*
X52416761Y3542908D01*
X52353548Y3474240D01*
X52293661Y3438250D01*
X52223823Y3440351D01*
X52166207Y3479876D01*
X52146138Y3514890D01*
X52100889Y3636204D01*
X52067214Y3681188D01*
X52013261Y3753261D01*
X51896204Y3840889D01*
X51759203Y3891989D01*
X51698654Y3898500D01*
X51698638Y3898500D01*
X49901362Y3898500D01*
X49901345Y3898500D01*
X49840797Y3891989D01*
X49840795Y3891989D01*
X49703795Y3840889D01*
X49586739Y3753261D01*
X49499111Y3636205D01*
X49448011Y3499205D01*
X49448011Y3499203D01*
X49441500Y3438655D01*
X49441500Y1641346D01*
X46739212Y1641346D01*
X46764594Y1668918D01*
X46795715Y1702724D01*
X46795717Y1702727D01*
X46795722Y1702732D01*
X46918860Y1891209D01*
X47009296Y2097384D01*
X47064564Y2315632D01*
X47067164Y2347007D01*
X47083156Y2539995D01*
X47083156Y2540006D01*
X47064565Y2764360D01*
X47064563Y2764372D01*
X47009296Y2982615D01*
X46999071Y3005925D01*
X46918860Y3188791D01*
X46902706Y3213516D01*
X46795723Y3377266D01*
X46795715Y3377277D01*
X46643243Y3542903D01*
X46643238Y3542908D01*
X46465577Y3681188D01*
X46465572Y3681192D01*
X46267580Y3788339D01*
X46267577Y3788341D01*
X46267574Y3788342D01*
X46267571Y3788343D01*
X46267569Y3788344D01*
X46054637Y3861444D01*
X45832569Y3898500D01*
X45607431Y3898500D01*
X45385362Y3861444D01*
X45172430Y3788344D01*
X45172419Y3788339D01*
X44974427Y3681192D01*
X44974422Y3681188D01*
X44796761Y3542908D01*
X44796756Y3542903D01*
X44644284Y3377277D01*
X44644276Y3377266D01*
X44550251Y3233350D01*
X44497105Y3187993D01*
X44427873Y3178570D01*
X44364538Y3208072D01*
X44344868Y3230049D01*
X44218113Y3411074D01*
X44218108Y3411080D01*
X44051082Y3578106D01*
X43857578Y3713601D01*
X43643492Y3813430D01*
X43643486Y3813433D01*
X43430000Y3870636D01*
X43430000Y2973012D01*
X43372993Y3005925D01*
X43245826Y3040000D01*
X43114174Y3040000D01*
X42987007Y3005925D01*
X42930000Y2973012D01*
X42930000Y3870636D01*
X42929999Y3870636D01*
X42716513Y3813433D01*
X42716507Y3813430D01*
X42502422Y3713601D01*
X42502420Y3713600D01*
X42308926Y3578114D01*
X42308920Y3578109D01*
X42141891Y3411080D01*
X42141890Y3411078D01*
X42011575Y3224969D01*
X41956998Y3181345D01*
X41887499Y3174152D01*
X41825145Y3205674D01*
X41808425Y3224969D01*
X41678109Y3411078D01*
X41678108Y3411080D01*
X41511082Y3578106D01*
X41317578Y3713601D01*
X41103492Y3813430D01*
X41103486Y3813433D01*
X40890000Y3870636D01*
X40890000Y2973012D01*
X40832993Y3005925D01*
X40705826Y3040000D01*
X40574174Y3040000D01*
X40447007Y3005925D01*
X40390000Y2973012D01*
X40390000Y3870636D01*
X40389999Y3870636D01*
X40176513Y3813433D01*
X40176507Y3813430D01*
X39962422Y3713601D01*
X39962420Y3713600D01*
X39768926Y3578114D01*
X39768920Y3578109D01*
X39601891Y3411080D01*
X39601890Y3411078D01*
X39475131Y3230048D01*
X39420554Y3186423D01*
X39351055Y3179231D01*
X39288701Y3210753D01*
X39269752Y3233344D01*
X39175722Y3377268D01*
X39175715Y3377275D01*
X39175715Y3377277D01*
X39023243Y3542903D01*
X39023238Y3542908D01*
X38845577Y3681188D01*
X38845572Y3681192D01*
X38647580Y3788339D01*
X38647577Y3788341D01*
X38647574Y3788342D01*
X38647571Y3788343D01*
X38647569Y3788344D01*
X38434637Y3861444D01*
X38212569Y3898500D01*
X37987431Y3898500D01*
X37765362Y3861444D01*
X37552430Y3788344D01*
X37552419Y3788339D01*
X37354427Y3681192D01*
X37354422Y3681188D01*
X37176761Y3542908D01*
X37176756Y3542903D01*
X37024284Y3377277D01*
X37024276Y3377266D01*
X36933808Y3238794D01*
X36880662Y3193438D01*
X36811431Y3184014D01*
X36748095Y3213516D01*
X36726192Y3238794D01*
X36635723Y3377266D01*
X36635715Y3377277D01*
X36483243Y3542903D01*
X36483238Y3542908D01*
X36305577Y3681188D01*
X36305572Y3681192D01*
X36107580Y3788339D01*
X36107577Y3788341D01*
X36107574Y3788342D01*
X36107571Y3788343D01*
X36107569Y3788344D01*
X35894637Y3861444D01*
X35672569Y3898500D01*
X35447431Y3898500D01*
X35225362Y3861444D01*
X35012430Y3788344D01*
X35012419Y3788339D01*
X34814427Y3681192D01*
X34814422Y3681188D01*
X34636761Y3542908D01*
X34636756Y3542903D01*
X34484284Y3377277D01*
X34484276Y3377266D01*
X34393808Y3238794D01*
X34340662Y3193438D01*
X34271431Y3184014D01*
X34208095Y3213516D01*
X34186192Y3238794D01*
X34095723Y3377266D01*
X34095715Y3377277D01*
X33943243Y3542903D01*
X33943238Y3542908D01*
X33765577Y3681188D01*
X33765572Y3681192D01*
X33567580Y3788339D01*
X33567577Y3788341D01*
X33567574Y3788342D01*
X33567571Y3788343D01*
X33567569Y3788344D01*
X33354637Y3861444D01*
X33132569Y3898500D01*
X32907431Y3898500D01*
X32685362Y3861444D01*
X32472430Y3788344D01*
X32472419Y3788339D01*
X32274427Y3681192D01*
X32274422Y3681188D01*
X32096761Y3542908D01*
X32096756Y3542903D01*
X31944284Y3377277D01*
X31944276Y3377266D01*
X31853808Y3238794D01*
X31800662Y3193438D01*
X31731431Y3184014D01*
X31668095Y3213516D01*
X31646192Y3238794D01*
X31555723Y3377266D01*
X31555715Y3377277D01*
X31403243Y3542903D01*
X31403238Y3542908D01*
X31225577Y3681188D01*
X31225572Y3681192D01*
X31027580Y3788339D01*
X31027577Y3788341D01*
X31027574Y3788342D01*
X31027571Y3788343D01*
X31027569Y3788344D01*
X30814637Y3861444D01*
X30592569Y3898500D01*
X30367431Y3898500D01*
X30145362Y3861444D01*
X29932430Y3788344D01*
X29932419Y3788339D01*
X29734427Y3681192D01*
X29734422Y3681188D01*
X29556761Y3542908D01*
X29493548Y3474240D01*
X29433661Y3438250D01*
X29363823Y3440351D01*
X29306207Y3479876D01*
X29286138Y3514890D01*
X29240889Y3636204D01*
X29207214Y3681188D01*
X29153261Y3753261D01*
X29036204Y3840889D01*
X28899203Y3891989D01*
X28838654Y3898500D01*
X28838638Y3898500D01*
X27041362Y3898500D01*
X27041345Y3898500D01*
X26980797Y3891989D01*
X26980795Y3891989D01*
X26843795Y3840889D01*
X26726739Y3753261D01*
X26639111Y3636205D01*
X26588011Y3499205D01*
X26588011Y3499203D01*
X26581500Y3438655D01*
X26581500Y1641346D01*
X75500Y1641346D01*
X75500Y49901346D01*
X17437500Y49901346D01*
X17444011Y49840798D01*
X17444011Y49840796D01*
X17495111Y49703796D01*
X17582739Y49586739D01*
X17699796Y49499111D01*
X17836799Y49448011D01*
X17864050Y49445082D01*
X17897345Y49441501D01*
X17897362Y49441500D01*
X19694638Y49441500D01*
X19694654Y49441501D01*
X19721692Y49444409D01*
X19755201Y49448011D01*
X19892204Y49499111D01*
X20009261Y49586739D01*
X20096889Y49703796D01*
X20142138Y49825113D01*
X20184009Y49881044D01*
X20249474Y49905461D01*
X20317746Y49890609D01*
X20349545Y49865764D01*
X20412760Y49797094D01*
X20590424Y49658811D01*
X20590425Y49658811D01*
X20590427Y49658809D01*
X20637516Y49633326D01*
X20788426Y49551658D01*
X21001365Y49478556D01*
X21223431Y49441500D01*
X21448569Y49441500D01*
X21670635Y49478556D01*
X21883574Y49551658D01*
X22081576Y49658811D01*
X22259240Y49797094D01*
X22380594Y49928918D01*
X22411715Y49962724D01*
X22411715Y49962725D01*
X22411722Y49962732D01*
X22502193Y50101210D01*
X22555338Y50146563D01*
X22624569Y50155987D01*
X22687905Y50126485D01*
X22709804Y50101213D01*
X22800278Y49962732D01*
X22800283Y49962727D01*
X22800284Y49962724D01*
X22926968Y49825111D01*
X22952760Y49797094D01*
X23130424Y49658811D01*
X23130425Y49658811D01*
X23130427Y49658809D01*
X23177516Y49633326D01*
X23328426Y49551658D01*
X23541365Y49478556D01*
X23763431Y49441500D01*
X23988569Y49441500D01*
X24210635Y49478556D01*
X24423574Y49551658D01*
X24621576Y49658811D01*
X24799240Y49797094D01*
X24920594Y49928918D01*
X24951715Y49962724D01*
X24951715Y49962725D01*
X24951722Y49962732D01*
X25045749Y50106653D01*
X25098894Y50152006D01*
X25168125Y50161430D01*
X25231461Y50131928D01*
X25251130Y50109952D01*
X25377890Y49928922D01*
X25544917Y49761895D01*
X25738421Y49626400D01*
X25952507Y49526571D01*
X25952516Y49526567D01*
X26166000Y49469366D01*
X26166000Y50366988D01*
X26223007Y50334075D01*
X26350174Y50300000D01*
X26481826Y50300000D01*
X26608993Y50334075D01*
X26666000Y50366988D01*
X26666000Y49469367D01*
X26879483Y49526567D01*
X26879492Y49526571D01*
X27093578Y49626400D01*
X27287082Y49761895D01*
X27454105Y49928918D01*
X27580868Y50109952D01*
X27635445Y50153577D01*
X27704944Y50160769D01*
X27767298Y50129247D01*
X27786251Y50106650D01*
X27880276Y49962735D01*
X27880284Y49962724D01*
X28006968Y49825111D01*
X28032760Y49797094D01*
X28210424Y49658811D01*
X28210425Y49658811D01*
X28210427Y49658809D01*
X28257516Y49633326D01*
X28408426Y49551658D01*
X28621365Y49478556D01*
X28843431Y49441500D01*
X29068569Y49441500D01*
X29290635Y49478556D01*
X29503574Y49551658D01*
X29701576Y49658811D01*
X29879240Y49797094D01*
X30000594Y49928918D01*
X30031715Y49962724D01*
X30031715Y49962725D01*
X30031722Y49962732D01*
X30122193Y50101210D01*
X30175338Y50146563D01*
X30244569Y50155987D01*
X30307905Y50126485D01*
X30329804Y50101213D01*
X30420278Y49962732D01*
X30420283Y49962727D01*
X30420284Y49962724D01*
X30546968Y49825111D01*
X30572760Y49797094D01*
X30750424Y49658811D01*
X30750425Y49658811D01*
X30750427Y49658809D01*
X30797516Y49633326D01*
X30948426Y49551658D01*
X31161365Y49478556D01*
X31383431Y49441500D01*
X31608569Y49441500D01*
X31830635Y49478556D01*
X32043574Y49551658D01*
X32241576Y49658811D01*
X32419240Y49797094D01*
X32540594Y49928918D01*
X32571715Y49962724D01*
X32571715Y49962725D01*
X32571722Y49962732D01*
X32662193Y50101210D01*
X32715338Y50146563D01*
X32784569Y50155987D01*
X32847905Y50126485D01*
X32869804Y50101213D01*
X32960278Y49962732D01*
X32960283Y49962727D01*
X32960284Y49962724D01*
X33086968Y49825111D01*
X33112760Y49797094D01*
X33290424Y49658811D01*
X33290425Y49658811D01*
X33290427Y49658809D01*
X33337516Y49633326D01*
X33488426Y49551658D01*
X33701365Y49478556D01*
X33923431Y49441500D01*
X34148569Y49441500D01*
X34370635Y49478556D01*
X34583574Y49551658D01*
X34781576Y49658811D01*
X34959240Y49797094D01*
X35080594Y49928918D01*
X35111715Y49962724D01*
X35111715Y49962725D01*
X35111722Y49962732D01*
X35202193Y50101210D01*
X35255338Y50146563D01*
X35324569Y50155987D01*
X35387905Y50126485D01*
X35409804Y50101213D01*
X35500278Y49962732D01*
X35500283Y49962727D01*
X35500284Y49962724D01*
X35626968Y49825111D01*
X35652760Y49797094D01*
X35830424Y49658811D01*
X35830425Y49658811D01*
X35830427Y49658809D01*
X35877516Y49633326D01*
X36028426Y49551658D01*
X36241365Y49478556D01*
X36463431Y49441500D01*
X36688569Y49441500D01*
X36910635Y49478556D01*
X37123574Y49551658D01*
X37321576Y49658811D01*
X37499240Y49797094D01*
X37620594Y49928918D01*
X37651715Y49962724D01*
X37651715Y49962725D01*
X37651722Y49962732D01*
X37742193Y50101210D01*
X37795338Y50146563D01*
X37864569Y50155987D01*
X37927905Y50126485D01*
X37949804Y50101213D01*
X38040278Y49962732D01*
X38040283Y49962727D01*
X38040284Y49962724D01*
X38166968Y49825111D01*
X38192760Y49797094D01*
X38370424Y49658811D01*
X38370425Y49658811D01*
X38370427Y49658809D01*
X38417516Y49633326D01*
X38568426Y49551658D01*
X38781365Y49478556D01*
X39003431Y49441500D01*
X39228569Y49441500D01*
X39450635Y49478556D01*
X39663574Y49551658D01*
X39861576Y49658811D01*
X40039240Y49797094D01*
X40160594Y49928918D01*
X40191715Y49962724D01*
X40191715Y49962725D01*
X40191722Y49962732D01*
X40282193Y50101210D01*
X40335338Y50146563D01*
X40404569Y50155987D01*
X40467905Y50126485D01*
X40489804Y50101213D01*
X40580278Y49962732D01*
X40580283Y49962727D01*
X40580284Y49962724D01*
X40706968Y49825111D01*
X40732760Y49797094D01*
X40910424Y49658811D01*
X40910426Y49658810D01*
X40910433Y49658805D01*
X40957516Y49633326D01*
X41007107Y49584108D01*
X41022500Y49524271D01*
X41022500Y42369767D01*
X41002815Y42302728D01*
X40986181Y42282086D01*
X40073915Y41369819D01*
X40012592Y41336334D01*
X39986234Y41333500D01*
X26637602Y41333500D01*
X26515219Y41309157D01*
X26515214Y41309155D01*
X26481448Y41295171D01*
X26481449Y41295170D01*
X26399926Y41261402D01*
X26399922Y41261400D01*
X26296171Y41192076D01*
X26296163Y41192070D01*
X21593796Y36489700D01*
X20796167Y35692071D01*
X20754065Y35649969D01*
X20707927Y35603832D01*
X20638603Y35500082D01*
X20638598Y35500073D01*
X20590845Y35384786D01*
X20590843Y35384778D01*
X20566500Y35262399D01*
X20566500Y21037602D01*
X20590843Y20915223D01*
X20590845Y20915215D01*
X20638598Y20799928D01*
X20638603Y20799919D01*
X20707928Y20696168D01*
X20707931Y20696164D01*
X27396163Y14007931D01*
X27396167Y14007928D01*
X27499921Y13938601D01*
X27499923Y13938601D01*
X27499925Y13938599D01*
X27581447Y13904832D01*
X27615215Y13890845D01*
X27615217Y13890845D01*
X27615222Y13890843D01*
X27737601Y13866501D01*
X27737605Y13866500D01*
X27737606Y13866500D01*
X35362395Y13866500D01*
X35362396Y13866501D01*
X35484785Y13890845D01*
X35600075Y13938600D01*
X35703833Y14007929D01*
X36092071Y14396167D01*
X36161400Y14499925D01*
X36195147Y14581399D01*
X36222026Y14621625D01*
X36290096Y14689694D01*
X36290099Y14689698D01*
X36374081Y14828623D01*
X36374082Y14828624D01*
X36422379Y14983614D01*
X36428500Y15050970D01*
X36428500Y15554030D01*
X36422379Y15621386D01*
X36374082Y15776376D01*
X36338127Y15835853D01*
X36320292Y15903404D01*
X36338127Y15964148D01*
X36374082Y16023624D01*
X36422379Y16178614D01*
X36428500Y16245970D01*
X36428500Y16749030D01*
X36422379Y16816386D01*
X36374082Y16971376D01*
X36374081Y16971378D01*
X36290100Y17110301D01*
X36290097Y17110305D01*
X36269819Y17130583D01*
X36236334Y17191906D01*
X36233500Y17218264D01*
X36233500Y17541811D01*
X36253185Y17608850D01*
X36292710Y17647538D01*
X36469411Y17755821D01*
X36469413Y17755822D01*
X36469413Y17755823D01*
X36469416Y17755824D01*
X36649969Y17910031D01*
X36804176Y18090584D01*
X36928240Y18293037D01*
X36968775Y18390896D01*
X37019104Y18512403D01*
X37019104Y18512404D01*
X37019105Y18512406D01*
X37074535Y18743289D01*
X37093165Y18980000D01*
X37074535Y19216711D01*
X37019105Y19447594D01*
X37019104Y19447597D01*
X37019104Y19447598D01*
X36928242Y19666960D01*
X36928240Y19666963D01*
X36804179Y19869411D01*
X36804178Y19869414D01*
X36769340Y19910203D01*
X36649969Y20049969D01*
X36530596Y20151924D01*
X36469413Y20204179D01*
X36469410Y20204180D01*
X36266962Y20328241D01*
X36266959Y20328243D01*
X36047596Y20419105D01*
X35816714Y20474535D01*
X35580000Y20493165D01*
X35343285Y20474535D01*
X35112404Y20419105D01*
X35112402Y20419105D01*
X34893040Y20328243D01*
X34893037Y20328241D01*
X34690589Y20204180D01*
X34690586Y20204179D01*
X34510031Y20049969D01*
X34355821Y19869414D01*
X34355820Y19869411D01*
X34231759Y19666963D01*
X34231757Y19666960D01*
X34194561Y19577158D01*
X34150720Y19522754D01*
X34084426Y19500689D01*
X34016727Y19517968D01*
X33969116Y19569105D01*
X33965439Y19577158D01*
X33928242Y19666960D01*
X33928240Y19666963D01*
X33804179Y19869411D01*
X33804178Y19869414D01*
X33769340Y19910203D01*
X33649969Y20049969D01*
X33530596Y20151924D01*
X33469413Y20204179D01*
X33469410Y20204180D01*
X33266962Y20328241D01*
X33266959Y20328243D01*
X33047596Y20419105D01*
X32816714Y20474535D01*
X32580000Y20493165D01*
X32343285Y20474535D01*
X32112404Y20419105D01*
X32112402Y20419105D01*
X31893040Y20328243D01*
X31893037Y20328241D01*
X31690589Y20204180D01*
X31690586Y20204179D01*
X31510031Y20049969D01*
X31355821Y19869414D01*
X31355820Y19869411D01*
X31231759Y19666963D01*
X31231757Y19666960D01*
X31140895Y19447598D01*
X31140895Y19447596D01*
X31085465Y19216715D01*
X31066835Y18980000D01*
X31085465Y18743286D01*
X31140895Y18512405D01*
X31140895Y18512403D01*
X31231757Y18293041D01*
X31231759Y18293038D01*
X31355820Y18090590D01*
X31355821Y18090587D01*
X31355824Y18090584D01*
X31510031Y17910031D01*
X31649797Y17790660D01*
X31690586Y17755822D01*
X31690588Y17755821D01*
X31887290Y17635282D01*
X31934165Y17583471D01*
X31946500Y17529555D01*
X31946500Y17198264D01*
X31926815Y17131225D01*
X31910181Y17110583D01*
X31909902Y17110305D01*
X31909899Y17110301D01*
X31825918Y16971378D01*
X31825916Y16971374D01*
X31777621Y16816388D01*
X31771500Y16749028D01*
X31771500Y16245973D01*
X31777621Y16178613D01*
X31803866Y16094390D01*
X31805018Y16024530D01*
X31768217Y15965138D01*
X31705148Y15935070D01*
X31685481Y15933500D01*
X28213766Y15933500D01*
X28146727Y15953185D01*
X28126085Y15969819D01*
X22369819Y21726085D01*
X22336334Y21787408D01*
X22333500Y21813766D01*
X22333500Y27347500D01*
X22353185Y27414539D01*
X22405989Y27460294D01*
X22457500Y27471500D01*
X22654027Y27471500D01*
X22654030Y27471500D01*
X22721386Y27477621D01*
X22876376Y27525918D01*
X22935852Y27561873D01*
X23003404Y27579708D01*
X23064147Y27561873D01*
X23123624Y27525918D01*
X23123627Y27525917D01*
X23123626Y27525917D01*
X23178448Y27508834D01*
X23278614Y27477621D01*
X23345970Y27471500D01*
X23345973Y27471500D01*
X23849027Y27471500D01*
X23849030Y27471500D01*
X23916386Y27477621D01*
X24071376Y27525918D01*
X24210305Y27609903D01*
X24210583Y27610181D01*
X24210836Y27610320D01*
X24216204Y27614525D01*
X24216903Y27613633D01*
X24271906Y27643666D01*
X24298264Y27646500D01*
X24829554Y27646500D01*
X24896593Y27626815D01*
X24935281Y27587290D01*
X25055820Y27390590D01*
X25055821Y27390587D01*
X25055824Y27390584D01*
X25210031Y27210031D01*
X25313232Y27121889D01*
X25390586Y27055822D01*
X25390589Y27055821D01*
X25593036Y26931760D01*
X25688468Y26892231D01*
X25742871Y26848390D01*
X25764936Y26782096D01*
X25747657Y26714397D01*
X25696520Y26666786D01*
X25681281Y26660390D01*
X25675397Y26658370D01*
X25675390Y26658368D01*
X25456761Y26540051D01*
X25409942Y26503612D01*
X25409942Y26503610D01*
X26150590Y25762963D01*
X26087007Y25745925D01*
X25972993Y25680099D01*
X25879901Y25587007D01*
X25814075Y25472993D01*
X25797037Y25409411D01*
X25056564Y26149884D01*
X24956267Y25996368D01*
X24856412Y25768718D01*
X24795387Y25527739D01*
X24795385Y25527730D01*
X24774859Y25280006D01*
X24774859Y25279995D01*
X24795385Y25032271D01*
X24795387Y25032262D01*
X24856412Y24791283D01*
X24956266Y24563636D01*
X25056564Y24410118D01*
X25797037Y25150591D01*
X25814075Y25087007D01*
X25879901Y24972993D01*
X25972993Y24879901D01*
X26087007Y24814075D01*
X26150590Y24797038D01*
X25409942Y24056391D01*
X25456768Y24019945D01*
X25456770Y24019944D01*
X25675385Y23901636D01*
X25675396Y23901631D01*
X25910506Y23820917D01*
X26155707Y23780000D01*
X26404293Y23780000D01*
X26649493Y23820917D01*
X26884603Y23901631D01*
X26884614Y23901636D01*
X27103228Y24019943D01*
X27103231Y24019945D01*
X27150056Y24056391D01*
X26409409Y24797038D01*
X26472993Y24814075D01*
X26587007Y24879901D01*
X26680099Y24972993D01*
X26745925Y25087007D01*
X26762962Y25150591D01*
X27503434Y24410118D01*
X27518235Y24411653D01*
X27540190Y24430390D01*
X27609422Y24439814D01*
X27649872Y24426266D01*
X27695381Y24401638D01*
X27695396Y24401631D01*
X27930506Y24320917D01*
X28175707Y24280000D01*
X28424293Y24280000D01*
X28669493Y24320917D01*
X28904603Y24401631D01*
X28904614Y24401636D01*
X29123228Y24519943D01*
X29123231Y24519945D01*
X29170056Y24556391D01*
X28429409Y25297038D01*
X28492993Y25314075D01*
X28607007Y25379901D01*
X28700099Y25472993D01*
X28765925Y25587007D01*
X28782962Y25650590D01*
X29523434Y24910118D01*
X29623731Y25063631D01*
X29723587Y25291283D01*
X29784612Y25532262D01*
X29784614Y25532271D01*
X29805141Y25779995D01*
X29805141Y25780006D01*
X29784614Y26027730D01*
X29784612Y26027739D01*
X29723587Y26268718D01*
X29623731Y26496370D01*
X29523434Y26649884D01*
X28782962Y25909411D01*
X28765925Y25972993D01*
X28700099Y26087007D01*
X28607007Y26180099D01*
X28492993Y26245925D01*
X28429410Y26262963D01*
X29170057Y27003610D01*
X29170056Y27003611D01*
X29123229Y27040057D01*
X28904614Y27158365D01*
X28904603Y27158370D01*
X28669493Y27239084D01*
X28424293Y27280000D01*
X28175707Y27280000D01*
X27930506Y27239084D01*
X27695396Y27158370D01*
X27695385Y27158365D01*
X27557201Y27083584D01*
X27488873Y27068989D01*
X27423501Y27093652D01*
X27381840Y27149743D01*
X27377118Y27219453D01*
X27403891Y27273167D01*
X27504176Y27390584D01*
X27628240Y27593037D01*
X27635342Y27610181D01*
X27719104Y27812403D01*
X27719104Y27812404D01*
X27719105Y27812406D01*
X27774535Y28043289D01*
X27793165Y28280000D01*
X27774535Y28516711D01*
X27719105Y28747594D01*
X27719104Y28747597D01*
X27719104Y28747598D01*
X27628242Y28966960D01*
X27628240Y28966963D01*
X27504179Y29169411D01*
X27504178Y29169414D01*
X27465654Y29214519D01*
X27349969Y29349969D01*
X27230596Y29451924D01*
X27169413Y29504179D01*
X27169410Y29504180D01*
X26966962Y29628241D01*
X26966959Y29628243D01*
X26747596Y29719105D01*
X26516714Y29774535D01*
X26280000Y29793165D01*
X26043285Y29774535D01*
X25812404Y29719105D01*
X25812402Y29719105D01*
X25593040Y29628243D01*
X25593037Y29628241D01*
X25390589Y29504180D01*
X25390586Y29504179D01*
X25210031Y29349969D01*
X25055821Y29169414D01*
X25055820Y29169411D01*
X24935281Y28972710D01*
X24883469Y28925835D01*
X24829554Y28913500D01*
X24338264Y28913500D01*
X24271225Y28933185D01*
X24250583Y28949819D01*
X24210304Y28990098D01*
X24210300Y28990101D01*
X24071377Y29074082D01*
X24071373Y29074084D01*
X23916386Y29122379D01*
X23916388Y29122379D01*
X23889443Y29124828D01*
X23849030Y29128500D01*
X23345970Y29128500D01*
X23305556Y29124828D01*
X23278612Y29122379D01*
X23194390Y29096134D01*
X23124530Y29094982D01*
X23065138Y29131783D01*
X23035070Y29194852D01*
X23033500Y29214519D01*
X23033500Y34486234D01*
X23053185Y34553273D01*
X23069819Y34573915D01*
X27626085Y39130181D01*
X27687408Y39163666D01*
X27713766Y39166500D01*
X31856005Y39166500D01*
X31923044Y39146815D01*
X31968799Y39094011D01*
X31978743Y39024853D01*
X31977624Y39018321D01*
X31975717Y39008736D01*
X31974956Y39004908D01*
X31942568Y38942999D01*
X31941022Y38941426D01*
X31909904Y38910308D01*
X31825916Y38771374D01*
X31777621Y38616388D01*
X31771500Y38549028D01*
X31771500Y38045973D01*
X31777621Y37978613D01*
X31825916Y37823627D01*
X31825918Y37823623D01*
X31861871Y37764148D01*
X31879706Y37696593D01*
X31861871Y37635852D01*
X31825918Y37576378D01*
X31825916Y37576374D01*
X31777621Y37421388D01*
X31771500Y37354028D01*
X31771500Y36850973D01*
X31777621Y36783613D01*
X31825916Y36628627D01*
X31825918Y36628623D01*
X31909899Y36489700D01*
X31909902Y36489696D01*
X31910181Y36489417D01*
X31910319Y36489164D01*
X31914525Y36483796D01*
X31913632Y36483097D01*
X31943666Y36428094D01*
X31946500Y36401736D01*
X31946500Y36030446D01*
X31926815Y35963407D01*
X31887290Y35924719D01*
X31690589Y35804180D01*
X31690586Y35804179D01*
X31510031Y35649969D01*
X31355821Y35469414D01*
X31355820Y35469411D01*
X31231759Y35266963D01*
X31231757Y35266960D01*
X31140895Y35047598D01*
X31140895Y35047596D01*
X31085465Y34816715D01*
X31066835Y34580000D01*
X31085465Y34343286D01*
X31140895Y34112405D01*
X31140895Y34112403D01*
X31231757Y33893041D01*
X31231759Y33893038D01*
X31355820Y33690590D01*
X31355821Y33690587D01*
X31355824Y33690584D01*
X31510031Y33510031D01*
X31583823Y33447007D01*
X31690586Y33355822D01*
X31690589Y33355821D01*
X31893037Y33231760D01*
X31893040Y33231758D01*
X32112403Y33140896D01*
X32112404Y33140896D01*
X32112406Y33140895D01*
X32343289Y33085465D01*
X32580000Y33066835D01*
X32816711Y33085465D01*
X33047594Y33140895D01*
X33047596Y33140896D01*
X33047597Y33140896D01*
X33266959Y33231758D01*
X33266960Y33231759D01*
X33266963Y33231760D01*
X33469416Y33355824D01*
X33649969Y33510031D01*
X33804176Y33690584D01*
X33928240Y33893037D01*
X33965439Y33982843D01*
X34009279Y34037247D01*
X34075573Y34059312D01*
X34143273Y34042033D01*
X34190884Y33990896D01*
X34194561Y33982843D01*
X34231757Y33893041D01*
X34231759Y33893038D01*
X34355820Y33690590D01*
X34355821Y33690587D01*
X34355824Y33690584D01*
X34510031Y33510031D01*
X34583823Y33447007D01*
X34690586Y33355822D01*
X34690589Y33355821D01*
X34893037Y33231760D01*
X34893040Y33231758D01*
X35112403Y33140896D01*
X35112404Y33140896D01*
X35112406Y33140895D01*
X35343289Y33085465D01*
X35580000Y33066835D01*
X35816711Y33085465D01*
X36047594Y33140895D01*
X36242968Y33221821D01*
X36312438Y33229290D01*
X36374917Y33198015D01*
X36402689Y33155249D01*
X36404352Y33155978D01*
X36506266Y32923636D01*
X36606564Y32770118D01*
X37347037Y33510592D01*
X37364075Y33447007D01*
X37429901Y33332993D01*
X37522993Y33239901D01*
X37637007Y33174075D01*
X37700590Y33157038D01*
X36959942Y32416391D01*
X37006768Y32379945D01*
X37006770Y32379944D01*
X37225385Y32261636D01*
X37225396Y32261631D01*
X37460506Y32180917D01*
X37705707Y32140000D01*
X37954293Y32140000D01*
X38199493Y32180917D01*
X38434603Y32261631D01*
X38434614Y32261636D01*
X38653228Y32379943D01*
X38653231Y32379945D01*
X38700056Y32416391D01*
X37959409Y33157038D01*
X38022993Y33174075D01*
X38137007Y33239901D01*
X38230099Y33332993D01*
X38295925Y33447007D01*
X38312962Y33510590D01*
X39053434Y32770118D01*
X39153731Y32923631D01*
X39253587Y33151283D01*
X39314612Y33392262D01*
X39314614Y33392271D01*
X39335141Y33639995D01*
X39335141Y33640006D01*
X39314614Y33887730D01*
X39314612Y33887739D01*
X39253587Y34128718D01*
X39153731Y34356370D01*
X39053434Y34509884D01*
X38312962Y33769411D01*
X38295925Y33832993D01*
X38230099Y33947007D01*
X38137007Y34040099D01*
X38022993Y34105925D01*
X37959408Y34122963D01*
X38700057Y34863611D01*
X38653229Y34900057D01*
X38434614Y35018365D01*
X38434603Y35018370D01*
X38199493Y35099084D01*
X37954293Y35140000D01*
X37705707Y35140000D01*
X37460506Y35099084D01*
X37225400Y35018371D01*
X37225390Y35018367D01*
X37187716Y34997979D01*
X37119387Y34983385D01*
X37054015Y35008049D01*
X37014139Y35059583D01*
X36928242Y35266960D01*
X36928240Y35266963D01*
X36804178Y35469412D01*
X36804178Y35469414D01*
X36769340Y35510203D01*
X36649969Y35649969D01*
X36530596Y35751924D01*
X36469413Y35804179D01*
X36469410Y35804180D01*
X36292710Y35912463D01*
X36245835Y35964275D01*
X36233500Y36018190D01*
X36233500Y36381736D01*
X36253185Y36448775D01*
X36269819Y36469417D01*
X36290097Y36489695D01*
X36374082Y36628624D01*
X36422379Y36783614D01*
X36428500Y36850970D01*
X36428500Y37354030D01*
X36422379Y37421386D01*
X36396134Y37505610D01*
X36394982Y37575470D01*
X36431783Y37634862D01*
X36494852Y37664930D01*
X36514519Y37666500D01*
X48462395Y37666500D01*
X48462396Y37666501D01*
X48584785Y37690845D01*
X48700075Y37738600D01*
X48803833Y37807929D01*
X53832071Y42836167D01*
X53901400Y42939925D01*
X53949155Y43055215D01*
X53973500Y43177606D01*
X53973500Y43302394D01*
X53973500Y49524271D01*
X53993185Y49591310D01*
X54038484Y49633326D01*
X54085566Y49658805D01*
X54085572Y49658809D01*
X54085576Y49658811D01*
X54263240Y49797094D01*
X54384594Y49928918D01*
X54415715Y49962724D01*
X54415715Y49962725D01*
X54415722Y49962732D01*
X54506193Y50101210D01*
X54559338Y50146563D01*
X54628569Y50155987D01*
X54691905Y50126485D01*
X54713804Y50101213D01*
X54804278Y49962732D01*
X54804283Y49962727D01*
X54804284Y49962724D01*
X54930968Y49825111D01*
X54956760Y49797094D01*
X55134424Y49658811D01*
X55134426Y49658810D01*
X55134433Y49658805D01*
X55181516Y49633326D01*
X55231107Y49584108D01*
X55246500Y49524271D01*
X55246500Y31293766D01*
X55226815Y31226727D01*
X55210181Y31206085D01*
X52473915Y28469819D01*
X52412592Y28436334D01*
X52386234Y28433500D01*
X46318264Y28433500D01*
X46251225Y28453185D01*
X46230583Y28469819D01*
X46210304Y28490098D01*
X46210300Y28490101D01*
X46071377Y28574082D01*
X46071373Y28574084D01*
X45916386Y28622379D01*
X45916388Y28622379D01*
X45889443Y28624828D01*
X45849030Y28628500D01*
X45345970Y28628500D01*
X45305556Y28624828D01*
X45278612Y28622379D01*
X45123626Y28574084D01*
X45123622Y28574082D01*
X45064148Y28538129D01*
X44996593Y28520294D01*
X44935852Y28538129D01*
X44876377Y28574082D01*
X44876373Y28574084D01*
X44721386Y28622379D01*
X44721388Y28622379D01*
X44694443Y28624828D01*
X44654030Y28628500D01*
X44150970Y28628500D01*
X44110556Y28624828D01*
X44083612Y28622379D01*
X43928626Y28574084D01*
X43928622Y28574082D01*
X43789699Y28490101D01*
X43789695Y28490098D01*
X43769417Y28469819D01*
X43708094Y28436334D01*
X43681736Y28433500D01*
X42498190Y28433500D01*
X42431151Y28453185D01*
X42392463Y28492710D01*
X42284179Y28669411D01*
X42284178Y28669414D01*
X42249340Y28710203D01*
X42129969Y28849969D01*
X41986258Y28972710D01*
X41949413Y29004179D01*
X41949410Y29004180D01*
X41746962Y29128241D01*
X41746959Y29128243D01*
X41527596Y29219105D01*
X41296714Y29274535D01*
X41060000Y29293165D01*
X40823285Y29274535D01*
X40592404Y29219105D01*
X40592402Y29219105D01*
X40373040Y29128243D01*
X40373037Y29128241D01*
X40170589Y29004180D01*
X40170586Y29004179D01*
X39990031Y28849969D01*
X39835821Y28669414D01*
X39835820Y28669411D01*
X39711759Y28466963D01*
X39711757Y28466960D01*
X39620895Y28247598D01*
X39620895Y28247596D01*
X39565465Y28016715D01*
X39546835Y27780000D01*
X39565465Y27543286D01*
X39620895Y27312405D01*
X39620895Y27312403D01*
X39711757Y27093041D01*
X39711759Y27093038D01*
X39835820Y26890590D01*
X39835821Y26890587D01*
X39871861Y26848390D01*
X39990031Y26710031D01*
X40085795Y26628241D01*
X40170586Y26555822D01*
X40170588Y26555822D01*
X40255786Y26503612D01*
X40373037Y26431760D01*
X40373040Y26431758D01*
X40592659Y26340790D01*
X40647063Y26296949D01*
X40669128Y26230655D01*
X40651849Y26162956D01*
X40650935Y26161439D01*
X40531756Y25966957D01*
X40440895Y25747598D01*
X40440895Y25747596D01*
X40385465Y25516715D01*
X40366835Y25280000D01*
X40385465Y25043286D01*
X40440895Y24812405D01*
X40440895Y24812403D01*
X40531757Y24593041D01*
X40531759Y24593038D01*
X40655820Y24390590D01*
X40655821Y24390587D01*
X40655824Y24390584D01*
X40810031Y24210031D01*
X40949797Y24090660D01*
X40990586Y24055822D01*
X40990589Y24055821D01*
X41193037Y23931760D01*
X41193040Y23931758D01*
X41412403Y23840896D01*
X41412404Y23840896D01*
X41412406Y23840895D01*
X41643289Y23785465D01*
X41880000Y23766835D01*
X42116711Y23785465D01*
X42347594Y23840895D01*
X42347596Y23840896D01*
X42347597Y23840896D01*
X42566959Y23931758D01*
X42566960Y23931759D01*
X42566963Y23931760D01*
X42769416Y24055824D01*
X42949969Y24210031D01*
X43104176Y24390584D01*
X43228240Y24593037D01*
X43228242Y24593043D01*
X43230454Y24597381D01*
X43232222Y24596481D01*
X43270808Y24644359D01*
X43337103Y24666421D01*
X43341524Y24666500D01*
X43681736Y24666500D01*
X43748775Y24646815D01*
X43769417Y24630181D01*
X43789695Y24609903D01*
X43789699Y24609900D01*
X43928622Y24525919D01*
X43928626Y24525917D01*
X43947798Y24519943D01*
X44083614Y24477621D01*
X44150970Y24471500D01*
X44150973Y24471500D01*
X44654027Y24471500D01*
X44654030Y24471500D01*
X44721386Y24477621D01*
X44876376Y24525918D01*
X44935852Y24561873D01*
X45003404Y24579708D01*
X45064147Y24561873D01*
X45123624Y24525918D01*
X45123627Y24525917D01*
X45123626Y24525917D01*
X45142798Y24519943D01*
X45278614Y24477621D01*
X45345970Y24471500D01*
X45345973Y24471500D01*
X45849027Y24471500D01*
X45849030Y24471500D01*
X45916386Y24477621D01*
X46071376Y24525918D01*
X46210305Y24609903D01*
X46230583Y24630181D01*
X46291906Y24663666D01*
X46318264Y24666500D01*
X53062395Y24666500D01*
X53062396Y24666501D01*
X53184785Y24690845D01*
X53300075Y24738600D01*
X53403833Y24807929D01*
X58912072Y30316167D01*
X58981401Y30419925D01*
X59029155Y30535216D01*
X59053500Y30657607D01*
X59053500Y30782394D01*
X59053500Y49524271D01*
X59073185Y49591310D01*
X59118484Y49633326D01*
X59165566Y49658805D01*
X59165572Y49658809D01*
X59165576Y49658811D01*
X59343240Y49797094D01*
X59464594Y49928918D01*
X59495715Y49962724D01*
X59495715Y49962725D01*
X59495722Y49962732D01*
X59586193Y50101210D01*
X59639338Y50146563D01*
X59708569Y50155987D01*
X59771905Y50126485D01*
X59793804Y50101213D01*
X59884278Y49962732D01*
X59884283Y49962727D01*
X59884284Y49962724D01*
X60010968Y49825111D01*
X60036760Y49797094D01*
X60214424Y49658811D01*
X60214425Y49658811D01*
X60214427Y49658809D01*
X60261516Y49633326D01*
X60412426Y49551658D01*
X60625365Y49478556D01*
X60847431Y49441500D01*
X61072569Y49441500D01*
X61294635Y49478556D01*
X61507574Y49551658D01*
X61705576Y49658811D01*
X61883240Y49797094D01*
X62004594Y49928918D01*
X62035715Y49962724D01*
X62035715Y49962725D01*
X62035722Y49962732D01*
X62126193Y50101210D01*
X62179338Y50146563D01*
X62248569Y50155987D01*
X62311905Y50126485D01*
X62333804Y50101213D01*
X62424278Y49962732D01*
X62424283Y49962727D01*
X62424284Y49962724D01*
X62550968Y49825111D01*
X62576760Y49797094D01*
X62754424Y49658811D01*
X62754425Y49658811D01*
X62754427Y49658809D01*
X62801516Y49633326D01*
X62952426Y49551658D01*
X63165365Y49478556D01*
X63387431Y49441500D01*
X63612569Y49441500D01*
X63834635Y49478556D01*
X64047574Y49551658D01*
X64245576Y49658811D01*
X64423240Y49797094D01*
X64544594Y49928918D01*
X64575715Y49962724D01*
X64575717Y49962727D01*
X64575722Y49962732D01*
X64698860Y50151209D01*
X64789296Y50357384D01*
X64844564Y50575632D01*
X64847164Y50607007D01*
X64863156Y50799995D01*
X64863156Y50800006D01*
X64844565Y51024360D01*
X64844563Y51024372D01*
X64789296Y51242615D01*
X64779071Y51265925D01*
X64698860Y51448791D01*
X64682706Y51473516D01*
X64575723Y51637266D01*
X64575715Y51637277D01*
X64423243Y51802903D01*
X64423238Y51802908D01*
X64245577Y51941188D01*
X64245572Y51941192D01*
X64047580Y52048339D01*
X64047577Y52048341D01*
X64047574Y52048342D01*
X64047571Y52048343D01*
X64047569Y52048344D01*
X63834637Y52121444D01*
X63612569Y52158500D01*
X63387431Y52158500D01*
X63165362Y52121444D01*
X62952430Y52048344D01*
X62952419Y52048339D01*
X62754427Y51941192D01*
X62754422Y51941188D01*
X62576761Y51802908D01*
X62576756Y51802903D01*
X62424284Y51637277D01*
X62424276Y51637266D01*
X62333808Y51498794D01*
X62280662Y51453438D01*
X62211431Y51444014D01*
X62148095Y51473516D01*
X62126192Y51498794D01*
X62035723Y51637266D01*
X62035715Y51637277D01*
X61883243Y51802903D01*
X61883238Y51802908D01*
X61705577Y51941188D01*
X61705572Y51941192D01*
X61507580Y52048339D01*
X61507577Y52048341D01*
X61507574Y52048342D01*
X61507571Y52048343D01*
X61507569Y52048344D01*
X61294637Y52121444D01*
X61072569Y52158500D01*
X60847431Y52158500D01*
X60625362Y52121444D01*
X60412430Y52048344D01*
X60412419Y52048339D01*
X60214427Y51941192D01*
X60214422Y51941188D01*
X60036761Y51802908D01*
X60036756Y51802903D01*
X59884284Y51637277D01*
X59884276Y51637266D01*
X59793808Y51498794D01*
X59740662Y51453438D01*
X59671431Y51444014D01*
X59608095Y51473516D01*
X59586192Y51498794D01*
X59495723Y51637266D01*
X59495715Y51637277D01*
X59343243Y51802903D01*
X59343238Y51802908D01*
X59165577Y51941188D01*
X59165572Y51941192D01*
X58967580Y52048339D01*
X58967577Y52048341D01*
X58967574Y52048342D01*
X58967571Y52048343D01*
X58967569Y52048344D01*
X58754637Y52121444D01*
X58532569Y52158500D01*
X58307431Y52158500D01*
X58085362Y52121444D01*
X57872430Y52048344D01*
X57872419Y52048339D01*
X57674427Y51941192D01*
X57674422Y51941188D01*
X57496761Y51802908D01*
X57496756Y51802903D01*
X57344284Y51637277D01*
X57344276Y51637266D01*
X57253808Y51498794D01*
X57200662Y51453438D01*
X57131431Y51444014D01*
X57068095Y51473516D01*
X57046192Y51498794D01*
X56955723Y51637266D01*
X56955715Y51637277D01*
X56803243Y51802903D01*
X56803238Y51802908D01*
X56625577Y51941188D01*
X56625572Y51941192D01*
X56427580Y52048339D01*
X56427577Y52048341D01*
X56427574Y52048342D01*
X56427571Y52048343D01*
X56427569Y52048344D01*
X56214637Y52121444D01*
X55992569Y52158500D01*
X55767431Y52158500D01*
X55545362Y52121444D01*
X55332430Y52048344D01*
X55332419Y52048339D01*
X55134427Y51941192D01*
X55134422Y51941188D01*
X54956761Y51802908D01*
X54956756Y51802903D01*
X54804284Y51637277D01*
X54804276Y51637266D01*
X54713808Y51498794D01*
X54660662Y51453438D01*
X54591431Y51444014D01*
X54528095Y51473516D01*
X54506192Y51498794D01*
X54415723Y51637266D01*
X54415715Y51637277D01*
X54263243Y51802903D01*
X54263238Y51802908D01*
X54085577Y51941188D01*
X54085572Y51941192D01*
X53887580Y52048339D01*
X53887577Y52048341D01*
X53887574Y52048342D01*
X53887571Y52048343D01*
X53887569Y52048344D01*
X53674637Y52121444D01*
X53452569Y52158500D01*
X53227431Y52158500D01*
X53005362Y52121444D01*
X52792430Y52048344D01*
X52792419Y52048339D01*
X52594427Y51941192D01*
X52594422Y51941188D01*
X52416761Y51802908D01*
X52416756Y51802903D01*
X52264284Y51637277D01*
X52264276Y51637266D01*
X52173808Y51498794D01*
X52120662Y51453438D01*
X52051431Y51444014D01*
X51988095Y51473516D01*
X51966192Y51498794D01*
X51875723Y51637266D01*
X51875715Y51637277D01*
X51723243Y51802903D01*
X51723238Y51802908D01*
X51545577Y51941188D01*
X51545572Y51941192D01*
X51347580Y52048339D01*
X51347577Y52048341D01*
X51347574Y52048342D01*
X51347571Y52048343D01*
X51347569Y52048344D01*
X51134637Y52121444D01*
X50912569Y52158500D01*
X50687431Y52158500D01*
X50465362Y52121444D01*
X50252430Y52048344D01*
X50252419Y52048339D01*
X50054427Y51941192D01*
X50054422Y51941188D01*
X49876761Y51802908D01*
X49876756Y51802903D01*
X49724284Y51637277D01*
X49724276Y51637266D01*
X49633808Y51498794D01*
X49580662Y51453438D01*
X49511431Y51444014D01*
X49448095Y51473516D01*
X49426192Y51498794D01*
X49335723Y51637266D01*
X49335715Y51637277D01*
X49183243Y51802903D01*
X49183238Y51802908D01*
X49005577Y51941188D01*
X49005572Y51941192D01*
X48807580Y52048339D01*
X48807577Y52048341D01*
X48807574Y52048342D01*
X48807571Y52048343D01*
X48807569Y52048344D01*
X48594637Y52121444D01*
X48372569Y52158500D01*
X48147431Y52158500D01*
X47925362Y52121444D01*
X47712430Y52048344D01*
X47712419Y52048339D01*
X47514427Y51941192D01*
X47514422Y51941188D01*
X47336761Y51802908D01*
X47273548Y51734240D01*
X47213661Y51698250D01*
X47143823Y51700351D01*
X47086207Y51739876D01*
X47066138Y51774890D01*
X47020889Y51896204D01*
X46987214Y51941188D01*
X46933261Y52013261D01*
X46816204Y52100889D01*
X46679203Y52151989D01*
X46618654Y52158500D01*
X46618638Y52158500D01*
X44821362Y52158500D01*
X44821345Y52158500D01*
X44760797Y52151989D01*
X44760795Y52151989D01*
X44623795Y52100889D01*
X44506739Y52013261D01*
X44419111Y51896205D01*
X44368011Y51759205D01*
X44368011Y51759203D01*
X44361500Y51698655D01*
X44361500Y49901346D01*
X44368011Y49840798D01*
X44368011Y49840796D01*
X44419111Y49703796D01*
X44506739Y49586739D01*
X44623796Y49499111D01*
X44760799Y49448011D01*
X44788050Y49445082D01*
X44821345Y49441501D01*
X44821362Y49441500D01*
X44962500Y49441500D01*
X45029539Y49421815D01*
X45075294Y49369011D01*
X45086500Y49317500D01*
X45086500Y44433766D01*
X45066815Y44366727D01*
X45050181Y44346085D01*
X42477188Y41773093D01*
X42415865Y41739608D01*
X42346173Y41744592D01*
X42290240Y41786464D01*
X42265823Y41851928D01*
X42267890Y41884965D01*
X42289499Y41993604D01*
X42289500Y41993606D01*
X42289500Y49524271D01*
X42309185Y49591310D01*
X42354484Y49633326D01*
X42401566Y49658805D01*
X42401572Y49658809D01*
X42401576Y49658811D01*
X42579240Y49797094D01*
X42700594Y49928918D01*
X42731715Y49962724D01*
X42731717Y49962727D01*
X42731722Y49962732D01*
X42854860Y50151209D01*
X42945296Y50357384D01*
X43000564Y50575632D01*
X43003164Y50607007D01*
X43019156Y50799995D01*
X43019156Y50800006D01*
X43000565Y51024360D01*
X43000563Y51024372D01*
X42945296Y51242615D01*
X42935071Y51265925D01*
X42854860Y51448791D01*
X42838706Y51473516D01*
X42731723Y51637266D01*
X42731715Y51637277D01*
X42579243Y51802903D01*
X42579238Y51802908D01*
X42401577Y51941188D01*
X42401572Y51941192D01*
X42203580Y52048339D01*
X42203577Y52048341D01*
X42203574Y52048342D01*
X42203571Y52048343D01*
X42203569Y52048344D01*
X41990637Y52121444D01*
X41768569Y52158500D01*
X41543431Y52158500D01*
X41321362Y52121444D01*
X41108430Y52048344D01*
X41108419Y52048339D01*
X40910427Y51941192D01*
X40910422Y51941188D01*
X40732761Y51802908D01*
X40732756Y51802903D01*
X40580284Y51637277D01*
X40580276Y51637266D01*
X40489808Y51498794D01*
X40436662Y51453438D01*
X40367431Y51444014D01*
X40304095Y51473516D01*
X40282192Y51498794D01*
X40191723Y51637266D01*
X40191715Y51637277D01*
X40039243Y51802903D01*
X40039238Y51802908D01*
X39861577Y51941188D01*
X39861572Y51941192D01*
X39663580Y52048339D01*
X39663577Y52048341D01*
X39663574Y52048342D01*
X39663571Y52048343D01*
X39663569Y52048344D01*
X39450637Y52121444D01*
X39228569Y52158500D01*
X39003431Y52158500D01*
X38781362Y52121444D01*
X38568430Y52048344D01*
X38568419Y52048339D01*
X38370427Y51941192D01*
X38370422Y51941188D01*
X38192761Y51802908D01*
X38192756Y51802903D01*
X38040284Y51637277D01*
X38040276Y51637266D01*
X37949808Y51498794D01*
X37896662Y51453438D01*
X37827431Y51444014D01*
X37764095Y51473516D01*
X37742192Y51498794D01*
X37651723Y51637266D01*
X37651715Y51637277D01*
X37499243Y51802903D01*
X37499238Y51802908D01*
X37321577Y51941188D01*
X37321572Y51941192D01*
X37123580Y52048339D01*
X37123577Y52048341D01*
X37123574Y52048342D01*
X37123571Y52048343D01*
X37123569Y52048344D01*
X36910637Y52121444D01*
X36688569Y52158500D01*
X36463431Y52158500D01*
X36241362Y52121444D01*
X36028430Y52048344D01*
X36028419Y52048339D01*
X35830427Y51941192D01*
X35830422Y51941188D01*
X35652761Y51802908D01*
X35652756Y51802903D01*
X35500284Y51637277D01*
X35500276Y51637266D01*
X35409808Y51498794D01*
X35356662Y51453438D01*
X35287431Y51444014D01*
X35224095Y51473516D01*
X35202192Y51498794D01*
X35111723Y51637266D01*
X35111715Y51637277D01*
X34959243Y51802903D01*
X34959238Y51802908D01*
X34781577Y51941188D01*
X34781572Y51941192D01*
X34583580Y52048339D01*
X34583577Y52048341D01*
X34583574Y52048342D01*
X34583571Y52048343D01*
X34583569Y52048344D01*
X34370637Y52121444D01*
X34148569Y52158500D01*
X33923431Y52158500D01*
X33701362Y52121444D01*
X33488430Y52048344D01*
X33488419Y52048339D01*
X33290427Y51941192D01*
X33290422Y51941188D01*
X33112761Y51802908D01*
X33112756Y51802903D01*
X32960284Y51637277D01*
X32960276Y51637266D01*
X32869808Y51498794D01*
X32816662Y51453438D01*
X32747431Y51444014D01*
X32684095Y51473516D01*
X32662192Y51498794D01*
X32571723Y51637266D01*
X32571715Y51637277D01*
X32419243Y51802903D01*
X32419238Y51802908D01*
X32241577Y51941188D01*
X32241572Y51941192D01*
X32043580Y52048339D01*
X32043577Y52048341D01*
X32043574Y52048342D01*
X32043571Y52048343D01*
X32043569Y52048344D01*
X31830637Y52121444D01*
X31608569Y52158500D01*
X31383431Y52158500D01*
X31161362Y52121444D01*
X30948430Y52048344D01*
X30948419Y52048339D01*
X30750427Y51941192D01*
X30750422Y51941188D01*
X30572761Y51802908D01*
X30572756Y51802903D01*
X30420284Y51637277D01*
X30420276Y51637266D01*
X30329808Y51498794D01*
X30276662Y51453438D01*
X30207431Y51444014D01*
X30144095Y51473516D01*
X30122192Y51498794D01*
X30031723Y51637266D01*
X30031715Y51637277D01*
X29879243Y51802903D01*
X29879238Y51802908D01*
X29701577Y51941188D01*
X29701572Y51941192D01*
X29503580Y52048339D01*
X29503577Y52048341D01*
X29503574Y52048342D01*
X29503571Y52048343D01*
X29503569Y52048344D01*
X29290637Y52121444D01*
X29068569Y52158500D01*
X28843431Y52158500D01*
X28621362Y52121444D01*
X28408430Y52048344D01*
X28408419Y52048339D01*
X28210427Y51941192D01*
X28210422Y51941188D01*
X28032761Y51802908D01*
X28032756Y51802903D01*
X27880284Y51637277D01*
X27880276Y51637266D01*
X27786251Y51493350D01*
X27733105Y51447993D01*
X27663873Y51438570D01*
X27600538Y51468072D01*
X27580868Y51490049D01*
X27454113Y51671074D01*
X27454108Y51671080D01*
X27287082Y51838106D01*
X27093578Y51973601D01*
X26879492Y52073430D01*
X26879486Y52073433D01*
X26666000Y52130636D01*
X26666000Y51233012D01*
X26608993Y51265925D01*
X26481826Y51300000D01*
X26350174Y51300000D01*
X26223007Y51265925D01*
X26166000Y51233012D01*
X26166000Y52130636D01*
X26165999Y52130636D01*
X25952513Y52073433D01*
X25952507Y52073430D01*
X25738422Y51973601D01*
X25738420Y51973600D01*
X25544926Y51838114D01*
X25544920Y51838109D01*
X25377891Y51671080D01*
X25377890Y51671078D01*
X25251131Y51490048D01*
X25196554Y51446423D01*
X25127055Y51439231D01*
X25064701Y51470753D01*
X25045752Y51493344D01*
X24951722Y51637268D01*
X24951715Y51637275D01*
X24951715Y51637277D01*
X24799243Y51802903D01*
X24799238Y51802908D01*
X24621577Y51941188D01*
X24621572Y51941192D01*
X24423580Y52048339D01*
X24423577Y52048341D01*
X24423574Y52048342D01*
X24423571Y52048343D01*
X24423569Y52048344D01*
X24210637Y52121444D01*
X23988569Y52158500D01*
X23763431Y52158500D01*
X23541362Y52121444D01*
X23328430Y52048344D01*
X23328419Y52048339D01*
X23130427Y51941192D01*
X23130422Y51941188D01*
X22952761Y51802908D01*
X22952756Y51802903D01*
X22800284Y51637277D01*
X22800276Y51637266D01*
X22709808Y51498794D01*
X22656662Y51453438D01*
X22587431Y51444014D01*
X22524095Y51473516D01*
X22502192Y51498794D01*
X22411723Y51637266D01*
X22411715Y51637277D01*
X22259243Y51802903D01*
X22259238Y51802908D01*
X22081577Y51941188D01*
X22081572Y51941192D01*
X21883580Y52048339D01*
X21883577Y52048341D01*
X21883574Y52048342D01*
X21883571Y52048343D01*
X21883569Y52048344D01*
X21670637Y52121444D01*
X21448569Y52158500D01*
X21223431Y52158500D01*
X21001362Y52121444D01*
X20788430Y52048344D01*
X20788419Y52048339D01*
X20590427Y51941192D01*
X20590422Y51941188D01*
X20412761Y51802908D01*
X20349548Y51734240D01*
X20289661Y51698250D01*
X20219823Y51700351D01*
X20162207Y51739876D01*
X20142138Y51774890D01*
X20096889Y51896204D01*
X20063214Y51941188D01*
X20009261Y52013261D01*
X19892204Y52100889D01*
X19755203Y52151989D01*
X19694654Y52158500D01*
X19694638Y52158500D01*
X17897362Y52158500D01*
X17897345Y52158500D01*
X17836797Y52151989D01*
X17836795Y52151989D01*
X17699795Y52100889D01*
X17582739Y52013261D01*
X17495111Y51896205D01*
X17444011Y51759205D01*
X17444011Y51759203D01*
X17437500Y51698655D01*
X17437500Y49901346D01*
X75500Y49901346D01*
X75500Y52571908D01*
X76097Y52584062D01*
X87494Y52699778D01*
X92234Y52723611D01*
X124216Y52829041D01*
X133508Y52851474D01*
X185442Y52948635D01*
X198938Y52968834D01*
X268827Y53053994D01*
X286006Y53071173D01*
X371166Y53141062D01*
X391365Y53154558D01*
X488526Y53206492D01*
X510959Y53215784D01*
X616389Y53247766D01*
X640220Y53252506D01*
X755939Y53263903D01*
X768093Y53264500D01*
X786531Y53264500D01*
X65253469Y53264500D01*
X65271907Y53264500D01*
X65284061Y53263903D01*
G37*
%TD.AperFunction*%
%TD*%
M02*
