%TF.GenerationSoftware,KiCad,Pcbnew,8.0.1-8.0.1-0~ubuntu23.10.1*%
%TF.CreationDate,2024-04-27T14:30:10-04:00*%
%TF.ProjectId,NavShield,4e617653-6869-4656-9c64-2e6b69636164,rev?*%
%TF.SameCoordinates,Original*%
%TF.FileFunction,Legend,Bot*%
%TF.FilePolarity,Positive*%
%FSLAX46Y46*%
G04 Gerber Fmt 4.6, Leading zero omitted, Abs format (unit mm)*
G04 Created by KiCad (PCBNEW 8.0.1-8.0.1-0~ubuntu23.10.1) date 2024-04-27 14:30:10*
%MOMM*%
%LPD*%
G01*
G04 APERTURE LIST*
%ADD10C,0.120000*%
%ADD11C,2.000000*%
%ADD12C,1.100000*%
%ADD13C,3.200000*%
%ADD14R,1.700000X1.700000*%
%ADD15O,1.700000X1.700000*%
G04 APERTURE END LIST*
D10*
%TO.C,J1*%
X26610000Y3870000D02*
X27940000Y3870000D01*
X26610000Y2540000D02*
X26610000Y3870000D01*
X29210000Y1210000D02*
X29210000Y3870000D01*
X47050000Y3870000D02*
X29210000Y3870000D01*
X47050000Y1210000D02*
X29210000Y1210000D01*
X47050000Y1210000D02*
X47050000Y3870000D01*
%TO.C,J3*%
X49470000Y3870000D02*
X50800000Y3870000D01*
X49470000Y2540000D02*
X49470000Y3870000D01*
X52070000Y1210000D02*
X52070000Y3870000D01*
X64830000Y3870000D02*
X52070000Y3870000D01*
X64830000Y1210000D02*
X52070000Y1210000D01*
X64830000Y1210000D02*
X64830000Y3870000D01*
%TO.C,J2*%
X17466000Y52130000D02*
X18796000Y52130000D01*
X17466000Y50800000D02*
X17466000Y52130000D01*
X20066000Y49470000D02*
X20066000Y52130000D01*
X42986000Y52130000D02*
X20066000Y52130000D01*
X42986000Y49470000D02*
X20066000Y49470000D01*
X42986000Y49470000D02*
X42986000Y52130000D01*
%TO.C,J4*%
X44390000Y52130000D02*
X45720000Y52130000D01*
X44390000Y50800000D02*
X44390000Y52130000D01*
X46990000Y49470000D02*
X46990000Y52130000D01*
X64830000Y52130000D02*
X46990000Y52130000D01*
X64830000Y49470000D02*
X46990000Y49470000D01*
X64830000Y49470000D02*
X64830000Y52130000D01*
%TD*%
%LPC*%
D11*
%TO.C,SW101*%
X37830000Y33640000D03*
X28300000Y25780000D03*
X41060000Y27780000D03*
X26280000Y28280000D03*
X32580000Y18980000D03*
X35580000Y34580000D03*
X41880000Y25280000D03*
X32580000Y34580000D03*
X26280000Y25280000D03*
X35580000Y18980000D03*
D12*
X35580000Y22980000D03*
%TD*%
D13*
%TO.C,MH1*%
X15240000Y50800000D03*
%TD*%
%TO.C,MH2*%
X13970000Y2540000D03*
%TD*%
%TO.C,MH3*%
X66040000Y35560000D03*
%TD*%
%TO.C,MH4*%
X66040000Y7620000D03*
%TD*%
D14*
%TO.C,J1*%
X27940000Y2540000D03*
D15*
X30480000Y2540000D03*
X33020000Y2540000D03*
X35560000Y2540000D03*
X38100000Y2540000D03*
X40640000Y2540000D03*
X43180000Y2540000D03*
X45720000Y2540000D03*
%TD*%
D14*
%TO.C,J3*%
X50800000Y2540000D03*
D15*
X53340000Y2540000D03*
X55880000Y2540000D03*
X58420000Y2540000D03*
X60960000Y2540000D03*
X63500000Y2540000D03*
%TD*%
D14*
%TO.C,J2*%
X18796000Y50800000D03*
D15*
X21336000Y50800000D03*
X23876000Y50800000D03*
X26416000Y50800000D03*
X28956000Y50800000D03*
X31496000Y50800000D03*
X34036000Y50800000D03*
X36576000Y50800000D03*
X39116000Y50800000D03*
X41656000Y50800000D03*
%TD*%
D14*
%TO.C,J4*%
X45720000Y50800000D03*
D15*
X48260000Y50800000D03*
X50800000Y50800000D03*
X53340000Y50800000D03*
X55880000Y50800000D03*
X58420000Y50800000D03*
X60960000Y50800000D03*
X63500000Y50800000D03*
%TD*%
%LPD*%
M02*
